<?xml version="1.0" encoding="UTF-8" standalone="no"?>
<!-- Created by Cary Bass http://commons.wikipedia.com/wiki/User:Bastique on January 20, 2006 -->
<svg xmlns:dc="http://purl.org/dc/elements/1.1/" xmlns:cc="http://creativecommons.org/ns#" xmlns:rdf="http://www.w3.org/1999/02/22-rdf-syntax-ns#" xmlns:svg="http://www.w3.org/2000/svg" xmlns="http://www.w3.org/2000/svg" xmlns:xlink="http://www.w3.org/1999/xlink" xmlns:sodipodi="http://sodipodi.sourceforge.net/DTD/sodipodi-0.dtd" xmlns:inkscape="http://www.inkscape.org/namespaces/inkscape" version="1.1" width="600" height="525" id="svg3069" inkscape:version="0.48.2 r9819" sodipodi:docname="Biohazard.svg">
  <metadata id="metadata3085">
    <rdf:RDF>
      <cc:Work rdf:about="">
        <dc:format>image/svg+xml</dc:format>
        <dc:type rdf:resource="http://purl.org/dc/dcmitype/StillImage"/>
        <dc:title/>
      </cc:Work>
    </rdf:RDF>
  </metadata>
  <sodipodi:namedview pagecolor="#ffffff" bordercolor="#666666" borderopacity="1" objecttolerance="10" gridtolerance="10" guidetolerance="10" inkscape:pageopacity="0" inkscape:pageshadow="2" inkscape:window-width="1360" inkscape:window-height="718" id="namedview3083" showgrid="false" inkscape:zoom="0.95047619" inkscape:cx="300" inkscape:cy="262.5" inkscape:window-x="-8" inkscape:window-y="-8" inkscape:window-maximized="1" inkscape:current-layer="svg3069"/>
  <defs id="defs3073">
    <path d="M 2.8117,-1.046 A 3 3 0 0 1 .5,2.958 V 4.5119 A 10.5 10.5 0 0 1 2,25.3078 V 25.8661 A 15 15 0 0 0 14.7975,8.5433 15 15 0 0 0 23.4007,-11.201 L 22.9172,-10.9218 A 10.5 10.5 0 0 1 4.1574,-1.8229 z M 6.2265,7.825 A 10 10 0 0 1 -6.2265,7.825 9.5 9.5 0 0 0 -8.4021,10.5667 13.5 13.5 0 0 0 8.4021,10.5667 10 10 0 0 0 6.2265,7.825 z" id="p" transform="scale(10,-10) translate(26,-26)"/>
  </defs>
  <g id="g3396">
    <path d="M597.6,499.6L313.8,8c-2.9-5-8.2-8-13.9-8c-5.7,0-11,3.1-13.9,8L2.2,499.6c-2.9,5-2.9,11.1,0,16      c2.9,5,8.2,8,13.9,8h567.6c5.7,0,11-3.1,13.9-8C600.5,510.6,600.5,504.5,597.6,499.6z" id="sign_border"/>
    <polygon points="299.875,48.2 555.875,491.5 43.875,491.5 " id="polygon7" style="fill:#ffdc32;fill-opacity:1;stroke:none;overflow:visible" transform="matrix(1,0,0,0.99591458,0.125,2.0332437)"/>
    <g transform="matrix(0.675,0,0,0.675,124.50005,169.1104)" id="biohazard">
      <use height="1" width="1" y="0" x="0" id="use3341" xlink:href="#p"/>
      <use height="1" width="1" y="0" x="0" id="use3343" transform="matrix(-0.5,0.8660254,-0.8660254,-0.5,615.1666,164.8334)" xlink:href="#p"/>
      <use height="1" width="1" y="0" x="0" id="use3345" transform="matrix(-0.5,-0.8660254,0.8660254,-0.5,164.8334,615.1666)" xlink:href="#p"/>
    </g>
  </g>
</svg>