<?xml version="1.0" encoding="UTF-8" standalone="no"?>
<!-- Created with Inkscape (http://www.inkscape.org/) -->

<svg
   xmlns:dc="http://purl.org/dc/elements/1.1/"
   xmlns:cc="http://creativecommons.org/ns#"
   xmlns:rdf="http://www.w3.org/1999/02/22-rdf-syntax-ns#"
   xmlns:svg="http://www.w3.org/2000/svg"
   xmlns="http://www.w3.org/2000/svg"
   xmlns:sodipodi="http://sodipodi.sourceforge.net/DTD/sodipodi-0.dtd"
   xmlns:inkscape="http://www.inkscape.org/namespaces/inkscape"
   width="744.09448819"
   height="1052.3622047"
   id="svg2"
   version="1.1"
   inkscape:version="0.48.4 r9939"
   sodipodi:docname="drawing.svg">
  <defs
     id="defs4">
    <filter
       id="filter3331"
       inkscape:label="Organic"
       x="0"
       y="0"
       width="1"
       height="1"
       inkscape:menu="Textures"
       inkscape:menu-tooltip="Bulging, knotty, slick 3D surface"
       color-interpolation-filters="sRGB">
      <feTurbulence
         id="feTurbulence3333"
         numOctaves="3"
         baseFrequency="0.037"
         result="result0" />
      <feSpecularLighting
         id="feSpecularLighting3335"
         specularExponent="24.3"
         surfaceScale="2"
         specularConstant="1"
         result="result1">
        <feDistantLight
           id="feDistantLight3337"
           elevation="45"
           azimuth="225" />
      </feSpecularLighting>
      <feDiffuseLighting
         id="feDiffuseLighting3339"
         in="result0"
         surfaceScale="3"
         diffuseConstant="1.21"
         result="result2">
        <feDistantLight
           id="feDistantLight3341"
           azimuth="225"
           elevation="42" />
      </feDiffuseLighting>
      <feBlend
         id="feBlend3343"
         in2="SourceGraphic"
         mode="multiply"
         result="result91" />
      <feComposite
         id="feComposite3345"
         in2="result91"
         operator="arithmetic"
         in="result1"
         k2="1"
         k3="1"
         result="result92" />
      <feComposite
         id="feComposite3347"
         in2="SourceAlpha"
         operator="in"
         result="result2" />
    </filter>
    <filter
       id="filter3349"
       inkscape:label="Organic"
       x="0"
       y="0"
       width="1"
       height="1"
       inkscape:menu="Textures"
       inkscape:menu-tooltip="Bulging, knotty, slick 3D surface"
       color-interpolation-filters="sRGB">
      <feTurbulence
         id="feTurbulence3351"
         numOctaves="3"
         baseFrequency="0.037"
         result="result0" />
      <feSpecularLighting
         id="feSpecularLighting3353"
         specularExponent="24.3"
         surfaceScale="2"
         specularConstant="1"
         result="result1">
        <feDistantLight
           id="feDistantLight3355"
           elevation="45"
           azimuth="225" />
      </feSpecularLighting>
      <feDiffuseLighting
         id="feDiffuseLighting3357"
         in="result0"
         surfaceScale="3"
         diffuseConstant="1.21"
         result="result2">
        <feDistantLight
           id="feDistantLight3359"
           azimuth="225"
           elevation="42" />
      </feDiffuseLighting>
      <feBlend
         id="feBlend3361"
         in2="SourceGraphic"
         mode="multiply"
         result="result91" />
      <feComposite
         id="feComposite3363"
         in2="result91"
         operator="arithmetic"
         in="result1"
         k2="1"
         k3="1"
         result="result92" />
      <feComposite
         id="feComposite3365"
         in2="SourceAlpha"
         operator="in"
         result="result2" />
    </filter>
    <filter
       id="filter3331-3"
       inkscape:label="Organic"
       x="0"
       y="0"
       width="1"
       height="1"
       inkscape:menu="Textures"
       inkscape:menu-tooltip="Bulging, knotty, slick 3D surface"
       color-interpolation-filters="sRGB">
      <feTurbulence
         id="feTurbulence3333-7"
         numOctaves="3"
         baseFrequency="0.037"
         result="result0" />
      <feSpecularLighting
         id="feSpecularLighting3335-6"
         specularExponent="24.29999924"
         surfaceScale="2"
         specularConstant="1"
         result="result1">
        <feDistantLight
           id="feDistantLight3337-5"
           elevation="45"
           azimuth="225" />
      </feSpecularLighting>
      <feDiffuseLighting
         id="feDiffuseLighting3339-3"
         in="result0"
         surfaceScale="3"
         diffuseConstant="1.21000004"
         result="result2">
        <feDistantLight
           id="feDistantLight3341-7"
           azimuth="225"
           elevation="42" />
      </feDiffuseLighting>
      <feBlend
         id="feBlend3343-7"
         in2="SourceGraphic"
         mode="multiply"
         result="result91" />
      <feComposite
         k4="0"
         k1="0"
         id="feComposite3345-6"
         in2="result91"
         operator="arithmetic"
         in="result1"
         k2="1"
         k3="1"
         result="result92" />
      <feComposite
         id="feComposite3347-2"
         in2="SourceAlpha"
         operator="in"
         result="result2" />
    </filter>
    <filter
       id="filter3349-4"
       inkscape:label="Organic"
       x="0"
       y="0"
       width="1"
       height="1"
       inkscape:menu="Textures"
       inkscape:menu-tooltip="Bulging, knotty, slick 3D surface"
       color-interpolation-filters="sRGB">
      <feTurbulence
         id="feTurbulence3351-8"
         numOctaves="3"
         baseFrequency="0.037"
         result="result0" />
      <feSpecularLighting
         id="feSpecularLighting3353-8"
         specularExponent="24.29999924"
         surfaceScale="2"
         specularConstant="1"
         result="result1">
        <feDistantLight
           id="feDistantLight3355-2"
           elevation="45"
           azimuth="225" />
      </feSpecularLighting>
      <feDiffuseLighting
         id="feDiffuseLighting3357-6"
         in="result0"
         surfaceScale="3"
         diffuseConstant="1.21000004"
         result="result2">
        <feDistantLight
           id="feDistantLight3359-8"
           azimuth="225"
           elevation="42" />
      </feDiffuseLighting>
      <feBlend
         id="feBlend3361-3"
         in2="SourceGraphic"
         mode="multiply"
         result="result91" />
      <feComposite
         k4="0"
         k1="0"
         id="feComposite3363-3"
         in2="result91"
         operator="arithmetic"
         in="result1"
         k2="1"
         k3="1"
         result="result92" />
      <feComposite
         id="feComposite3365-7"
         in2="SourceAlpha"
         operator="in"
         result="result2" />
    </filter>
  </defs>
  <sodipodi:namedview
     id="base"
     pagecolor="#ffffff"
     bordercolor="#666666"
     borderopacity="1.0"
     inkscape:pageopacity="0.0"
     inkscape:pageshadow="2"
     inkscape:zoom="0.67864264"
     inkscape:cx="308.28765"
     inkscape:cy="700.08862"
     inkscape:document-units="px"
     inkscape:current-layer="layer2"
     showgrid="false"
     inkscape:window-width="1535"
     inkscape:window-height="1176"
     inkscape:window-x="65"
     inkscape:window-y="24"
     inkscape:window-maximized="1" />
  <metadata
     id="metadata7">
    <rdf:RDF>
      <cc:Work
         rdf:about="">
        <dc:format>image/svg+xml</dc:format>
        <dc:type
           rdf:resource="http://purl.org/dc/dcmitype/StillImage" />
      </cc:Work>
    </rdf:RDF>
  </metadata>
  <g
     inkscape:label="Layer 1"
     inkscape:groupmode="layer"
     id="layer1">
    <path
       style="fill:#000000;fill-opacity:1;fill-rule:nonzero;stroke:none"
       id="path3033"
       d="m 272.6132,544.4278 c -3.44025,-1.13441 -7.02954,-1.52252 -10.62837,-1.69023 -4.64523,-0.12499 -9.248,0.5379 -13.81408,1.30868 -5.8179,1.03477 -11.5339,2.48982 -17.15082,4.31441 -6.46359,2.06799 -12.61613,4.93993 -18.69094,7.93436 -6.76448,3.40699 -13.29048,7.25874 -19.65049,11.36517 -6.47746,4.2838 -12.41092,9.3013 -18.22934,14.42518 -0.95919,0.85842 -1.92733,1.70694 -2.87756,2.57527 -2.89555,2.64593 -5.675,5.41024 -8.36369,8.26617 -3.33095,3.53814 -3.53969,3.68827 -2.04037,2.3461 -4.94271,5.61793 -9.19176,11.78405 -13.00259,18.21108 -3.59776,5.98722 -6.37093,12.40971 -8.56002,19.02971 -2.03857,6.44578 -2.79102,13.15268 -2.92856,19.88107 -0.0152,6.82962 0.95647,13.598 2.17654,20.30021 1.36167,7.22603 3.40414,14.30046 5.83037,21.23458 2.61638,7.1859 5.6955,14.19075 8.89656,21.13188 3.24818,7.2453 7.4613,13.97266 12.03414,20.44096 4.85236,6.64178 10.3012,12.8134 15.89319,18.83446 5.74283,6.14552 11.95885,11.80634 18.44162,17.1553 6.54665,5.41833 13.72545,9.94375 21.14615,14.04811 7.42663,4.04772 15.28177,7.19454 23.22816,10.04918 8.06908,2.85041 16.39437,4.84288 24.74545,6.65865 8.29317,1.83717 16.72686,2.86322 25.16731,3.72243 8.43052,0.78168 16.87501,0.70614 25.30958,0.11452 8.21674,-0.69413 16.25627,-2.52886 24.17812,-4.74543 7.50604,-2.20148 14.66584,-5.31363 21.62902,-8.84452 6.86174,-3.54275 13.11009,-8.06913 19.21878,-12.75495 2.9286,-2.4537 7.68328,-7.10777 12.58926,-12.26178 4.98033,-5.01917 9.06262,-10.79133 12.92057,-16.68714 3.5905,-5.82898 6.4002,-12.07604 9.09163,-18.35559 2.64689,-6.19784 4.76294,-12.59014 6.62581,-19.06077 1.86661,-6.57525 3.00472,-13.31419 3.85306,-20.08615 0.78707,-6.52501 0.6963,-13.1017 0.33732,-19.64996 -0.43576,-6.55033 -1.26477,-13.06493 -2.11931,-19.57112 -0.82745,-6.64847 -2.01425,-13.24084 -3.38122,-19.79704 -1.37022,-6.24566 -3.0393,-12.4175 -4.71254,-18.58688 -1.3497,-5.10978 -3.01483,-10.12468 -4.72675,-15.1217 -1.16761,-3.44048 -2.23778,-6.91321 -3.53101,-10.30971 -0.99283,-1.82025 -1.10062,-3.61271 -0.83829,-5.61494 0,0 0.25054,-0.18693 0.25054,-0.18693 l 0,0 c 2.13826,0.19166 3.58694,0.87461 4.53182,2.9217 1.71836,3.14871 3.14412,6.44477 4.34995,9.82344 1.75183,5.05659 3.35024,10.16471 4.72354,15.33812 1.64763,6.116 3.24,12.25289 4.5491,18.45117 1.35317,6.58648 2.45062,13.21943 3.32609,19.88672 0.85004,6.48614 1.60418,12.9866 2.09177,19.51132 0.37148,6.56272 0.39792,13.13577 -0.39385,19.67495 -0.82375,6.79679 -1.96908,13.55643 -3.80987,20.16022 -1.83639,6.50089 -3.91168,12.94326 -6.46648,19.20066 -2.68296,6.32872 -5.68953,12.52402 -9.25761,18.4074 -3.71794,6.1238 -8.0247,11.82919 -12.85844,17.12361 -6.39598,6.75154 -13.31198,12.96772 -20.64965,18.69202 -5.9842,4.89582 -12.23783,9.48339 -19.05437,13.1673 -6.83466,3.65428 -13.91753,6.85276 -21.42105,8.88588 -8.03788,2.23681 -16.2235,3.90143 -24.57123,4.41205 -8.34805,0.54067 -16.73935,0.70379 -25.08224,-0.0406 -8.34706,-0.70928 -16.6582,-1.81142 -24.83936,-3.64936 -8.32881,-1.8814 -16.5933,-4.06251 -24.6577,-6.88852 -7.96433,-2.86235 -15.81983,-6.04579 -23.27349,-10.08187 -7.44783,-4.12738 -14.59943,-8.76402 -21.19621,-14.16729 -6.47128,-5.36339 -12.66433,-11.05067 -18.35877,-17.24265 -5.60163,-6.03715 -11.08895,-12.20105 -15.95467,-18.85664 -4.60418,-6.47768 -8.83202,-13.20713 -12.13355,-20.45658 -3.24769,-6.98454 -6.42227,-14.0166 -9.0834,-21.24923 -2.37918,-6.94883 -4.55135,-13.96779 -5.87816,-21.2065 -1.25466,-6.73489 -2.34696,-13.52729 -2.3412,-20.39933 0.11434,-6.76915 0.70832,-13.50744 2.82664,-19.98531 2.1619,-6.67785 4.83568,-13.147 8.38588,-19.22249 3.8216,-6.4755 7.9809,-12.73571 12.94978,-18.40386 6.2845,-7.02022 12.55487,-14.06857 19.79666,-20.13766 5.95101,-5.01464 11.99195,-9.94605 18.58316,-14.10992 6.34716,-4.0665 12.85158,-7.87679 19.64353,-11.16031 6.09835,-2.97901 12.27449,-5.83532 18.75402,-7.89862 5.68956,-1.71536 11.42559,-3.33164 17.29848,-4.29406 4.61193,-0.783 9.26549,-1.49605 13.95956,-1.30824 3.69765,0.1928 7.37111,0.68472 10.92872,1.7494 0,0 -3.73463,3.33048 -3.73463,3.33048 z"
       inkscape:connector-curvature="0" />
    <path
       style="fill:#000000;fill-opacity:1;fill-rule:nonzero;stroke:none"
       id="path3035"
       d="m 268.35095,539.04001 c 3.17316,-1.0056 6.33874,-2.03517 9.50264,-3.06955 2.75383,-0.89461 5.4828,-1.85908 8.21566,-2.81407 3.24916,-1.17813 6.39932,-2.56659 9.50713,-4.07134 3.65333,-1.78506 7.11308,-3.91598 10.47992,-6.18648 4.03595,-2.60965 7.85713,-5.5404 11.54647,-8.61642 0.60759,-0.54071 2.52255,-2.03668 1.82279,-1.62211 -0.76511,0.45328 -1.23933,1.31839 -2.02221,1.74025 -0.69632,0.37521 1.17023,-1.0645 1.75553,-1.59655 1.71581,-1.5597 3.32963,-3.18693 4.94896,-4.84595 3.14267,-3.17086 5.85829,-6.72948 8.60927,-10.23646 2.88522,-3.73274 5.76209,-7.47427 8.44549,-11.35558 2.46797,-3.43802 4.62487,-7.08151 6.49803,-10.87339 1.70737,-3.59429 3.32109,-7.23219 5.02229,-10.83043 1.45717,-3.24508 3.02587,-6.43246 4.3571,-9.73262 1.28112,-3.21184 1.90239,-6.62125 2.66146,-9.97852 0.77928,-4.02303 2.01205,-7.92595 3.15525,-11.85349 1.11536,-3.15428 2.14247,-6.34029 3.37245,-9.45251 0.96506,-2.61351 2.91776,-4.48573 4.82525,-6.41995 0,0 0.28126,-0.13638 0.28126,-0.13638 l 0,0 c -0.38869,1.56601 -0.0533,-0.16559 -0.0686,1.33303 -0.0105,1.02597 -0.50803,1.97489 -0.70067,2.96458 -0.85394,2.95488 -1.71164,5.90822 -2.63389,8.84284 -1.29503,3.76299 -2.28493,7.62536 -3.22139,11.49095 -0.77197,3.44736 -1.57689,6.90101 -2.87106,10.19741 -1.34066,3.31829 -2.8496,6.56526 -4.49254,9.74476 -1.69108,3.58342 -3.37812,7.16841 -5.13116,10.72205 -1.97942,3.7513 -4.13668,7.39357 -6.67655,10.79969 -2.82554,3.79889 -5.5698,7.65674 -8.34419,11.49296 -2.66167,3.63529 -5.48761,7.13658 -8.59892,10.40001 -4.52246,4.63361 -9.34083,8.97909 -14.36348,13.06518 -3.69117,3.05542 -7.42484,6.04871 -11.34564,8.80718 -3.36958,2.24801 -6.77739,4.45849 -10.45911,6.17056 -3.07226,1.42726 -6.17683,2.80633 -9.33542,4.03066 -2.55991,0.97046 -5.17911,1.75974 -7.8154,2.49558 -3.13937,0.93057 -6.28575,1.84606 -9.38053,2.91779 0,0 2.45377,-3.52368 2.45377,-3.52368 z"
       inkscape:connector-curvature="0" />
    <path
       style="fill:#000000;fill-opacity:1;fill-rule:nonzero;stroke:none"
       id="path3037"
       d="m 418.35501,603.82167 c -1.69855,-1.69528 -3.23337,-3.52925 -4.60802,-5.4938 -1.02034,-1.63607 -1.60774,-3.45157 -2.01398,-5.32167 -0.47879,-2.51824 -0.66237,-5.07697 -0.82489,-7.63153 -0.21385,-3.43012 -0.62904,-6.84374 -0.9784,-10.2624 -0.48249,-3.82999 -0.72995,-7.68667 -0.82878,-11.54439 -0.20824,-4.0993 0.0747,-8.20385 0.41745,-12.28779 0.50576,-4.68698 1.07273,-9.38311 2.07782,-13.99153 1.11163,-5.30762 2.83293,-10.45711 4.6017,-15.57447 1.80856,-5.36957 3.66312,-10.72304 5.44771,-16.10088 1.73887,-5.46782 3.34551,-10.97617 5.02094,-16.46395 1.76217,-5.34509 3.58483,-10.67526 5.70247,-15.89103 1.9035,-4.69664 4.12921,-9.24984 6.66464,-13.63563 2.64011,-4.5356 5.64482,-8.82813 8.81865,-13.00031 2.60321,-3.38916 5.36124,-6.64963 8.11179,-9.91818 2.19989,-2.50052 4.59244,-4.81767 7.06078,-7.04967 1.60187,-1.45168 3.37463,-2.69991 5.1381,-3.9441 0,0 0.26755,-0.16164 0.26755,-0.16164 l 0,0 c 1.13121,-0.15221 -1.16994,1.4077 -1.20132,1.64342 -2.3244,2.18424 -4.61144,4.41035 -6.71962,6.80736 -2.91507,3.14918 -5.64819,6.46706 -8.33296,9.81315 -3.1946,4.14796 -6.2188,8.42998 -8.87625,12.94565 -2.52797,4.33816 -4.97657,8.72556 -6.8599,13.39188 -2.13139,5.18656 -4.20537,10.39625 -5.86789,15.75687 -1.77478,5.38499 -3.30201,10.84681 -5.01474,16.25179 -1.73104,5.33817 -3.6154,10.62446 -5.50005,15.91003 -1.70856,4.98464 -3.45841,9.96299 -4.78129,15.06824 -1.00549,4.53024 -2.02708,9.05694 -2.33856,13.70338 -0.35367,4.04615 -0.56078,8.09834 -0.55421,12.16132 0.0975,3.79325 0.23495,7.58118 0.59019,11.36062 0.35376,3.39206 0.69236,6.78244 0.89424,10.18762 0.15171,2.5266 0.16253,5.06773 0.53639,7.57418 0.37833,1.85405 0.90422,3.67302 1.86813,5.31875 1.18906,2.22583 2.63823,4.29862 4.34034,6.166 0,0 -2.25803,4.21271 -2.25803,4.21271 z"
       inkscape:connector-curvature="0" />
    <path
       style="fill:#000000;fill-opacity:1;fill-rule:nonzero;stroke:none"
       id="path3039"
       d="m 353.50118,447.51073 c 0.2914,-0.41121 1.17555,-1.63763 0.8742,-1.23365 -0.49214,0.65974 -0.92859,1.36149 -1.44666,2.00107 -0.38134,0.47077 0.69077,-0.99551 1.03562,-1.49364 1.10871,-1.60146 2.19772,-3.2072 3.24721,-4.84817 2.22808,-3.35901 4.14954,-6.90548 6.077,-10.44147 2.03303,-3.59683 3.48801,-7.43883 4.87346,-11.31415 1.22154,-3.55859 2.36323,-7.13951 3.72983,-10.64634 1.70343,-3.89183 3.57883,-7.70402 5.47299,-11.50554 1.7742,-3.64977 3.50744,-7.31329 4.99854,-11.08828 1.05097,-2.98573 2.15899,-5.94533 3.50867,-8.81015 1.1409,-2.43319 2.52868,-4.73195 3.8231,-7.08342 0.55279,-1.05236 1.07439,-2.04663 0.96777,-3.24784 -0.0856,-0.40539 -0.2906,-0.75635 -0.5913,-1.03807 -0.22423,-0.19 -0.30044,0.0719 -0.41228,0.24574 1.15428,-0.84797 2.30856,-1.69595 3.46284,-2.54393 -0.75836,1.18773 -1.11903,2.55616 -1.49312,3.89906 -0.78035,2.54496 -1.71998,5.03966 -2.60203,7.55118 -2.05451,5.55155 -4.15724,11.08492 -6.27127,16.61412 -3.59206,9.23737 -7.41257,18.37915 -11.55831,27.38142 -4.74748,9.82331 -9.56993,19.61273 -14.46603,29.36312 -3.4909,6.70288 -2.05914,3.46537 -4.43895,9.64772 0,0 -0.21471,0.22717 -0.21471,0.22717 l 0,0 c 2.10486,-5.4854 1.2321,-2.83304 2.68974,-7.9332 4.05103,-9.83014 9.2509,-19.12725 13.58816,-28.8319 4.00234,-8.94089 7.85594,-17.95453 10.99878,-27.24068 1.98426,-5.49428 4.00125,-10.97814 5.89858,-16.5028 0.86318,-2.53075 1.69704,-5.07091 2.38934,-7.65472 0.38953,-1.37344 0.68847,-2.79646 1.32697,-4.08007 0.70503,-0.59357 3.10929,-4.53202 4.88853,-3.15629 0.37854,0.35863 0.7024,0.74245 0.80593,1.27388 0.17699,1.20674 -0.47393,2.38495 -1.05953,3.39224 -1.26537,2.23823 -2.58546,4.45153 -3.70041,6.76905 -1.33092,2.84335 -2.47742,5.75583 -3.55095,8.70415 -1.48153,3.79831 -3.09528,7.54718 -5.00528,11.15264 -1.88269,3.77441 -3.88908,7.4895 -5.59691,11.3478 -1.51849,3.4489 -2.801,6.98545 -4.01598,10.55196 -1.47855,3.90351 -3.22143,7.71053 -5.12341,11.42579 -1.831,3.50115 -3.81484,6.91527 -5.99307,10.21329 -2.89708,4.21441 -5.83515,8.40203 -8.8794,12.51187 0,0 1.76234,-3.57896 1.76234,-3.57896 z"
       inkscape:connector-curvature="0" />
    <path
       style="fill:#000000;fill-opacity:1;fill-rule:nonzero;stroke:none"
       id="path3043"
       d="m 447.80821,444.39171 c 1.83488,-3.36524 3.80308,-6.65722 5.79943,-9.92867 1.99776,-3.28189 4.28171,-6.36972 6.50306,-9.49931 2.09687,-2.74961 4.14813,-5.53269 6.21732,-8.30303 2.16107,-3.00971 4.53224,-5.85881 6.86593,-8.73381 2.03596,-2.35266 4.08188,-4.69424 6.22919,-6.94611 1.58416,-1.68938 3.30632,-3.25513 5.11232,-4.70364 1.3335,-1.09591 2.668,-2.19808 4.08706,-3.18215 1.63798,-0.402 2.80844,-2.31385 4.35656,-3.16011 0.46122,0.0298 0.53546,0.36855 0.44128,0.77053 -0.40605,0.85066 -1.06288,1.56058 -1.65605,2.28554 -0.84555,1.06347 -1.61477,2.1794 -2.3919,3.29258 -1.48983,2.13494 -3.10899,4.17449 -4.74531,6.19779 -3.04971,3.68505 -6.13844,7.33822 -9.2614,10.96137 -3.89547,4.47582 -7.76588,8.97232 -11.50368,13.58123 -4.26032,5.4591 -8.15842,11.18591 -12.19942,16.80623 -2.38084,3.18802 -4.80193,6.3175 -6.99458,9.63806 0,0 -0.25176,0.18528 -0.25176,0.18528 l 0,0 c 1.77401,-2.68697 3.32417,-5.4603 4.98918,-8.21509 3.65365,-5.63042 7.40375,-11.20878 11.5543,-16.48888 3.70949,-4.71453 7.61129,-9.26813 11.44803,-13.87847 3.06823,-3.68494 6.19053,-7.32477 9.22901,-11.03452 1.60108,-1.99874 3.18954,-4.00918 4.64495,-6.11797 0.76343,-1.10216 1.5446,-2.20035 2.41821,-3.21803 0.59346,-0.72914 1.23887,-1.41481 1.78274,-2.18259 0.29114,-0.46762 0.41874,-0.19136 -0.0445,0.0759 -1.16682,0.87123 -3.55636,2.15282 1.81068,-1.41239 -1.30013,1.07765 -2.53326,2.23143 -3.84081,3.30243 -1.73806,1.49237 -3.55091,2.90136 -5.12121,4.5804 -2.15967,2.24422 -4.33443,4.47806 -6.38341,6.82457 -2.47893,2.7086 -4.81075,5.54334 -7.03265,8.46663 -2.06092,2.78263 -4.19319,5.51041 -6.27555,8.27696 -2.34144,3.05567 -4.51726,6.24008 -6.55911,9.50308 -1.98779,3.20701 -3.91017,6.44982 -5.70139,9.77196 0,0 -3.52655,2.48422 -3.52655,2.48422 z"
       inkscape:connector-curvature="0" />
    <path
       style="fill:#000000;fill-opacity:1;fill-rule:nonzero;stroke:none"
       id="path3045"
       d="m 487.90564,395.34656 c 2.11944,-3.43612 5.27268,-6.09351 8.99845,-7.70809 2.09243,-0.73929 4.27382,-1.2215 6.49515,-1.2567 0.95903,0.13862 0.52841,8.9e-4 1.30586,0.36662 0,0 -0.24417,0.19518 -0.24417,0.19518 l 0,0 c -1.82974,0.56145 -0.927,0.30722 -2.70683,0.76755 -2.49995,0.58777 -5.05696,1.07448 -7.37038,2.23789 -0.40385,0.23121 -1.52712,1.03564 -1.21155,0.69363 0.51191,-0.55479 1.18026,-0.94642 1.81779,-1.35066 0.3933,-0.24938 -0.73992,0.56789 -1.08188,0.88404 -0.68886,0.63686 -1.35154,1.40727 -1.87461,2.18637 -0.24192,0.36034 -0.43447,0.75147 -0.6517,1.1272 0,0 -3.47613,1.85697 -3.47613,1.85697 z"
       inkscape:connector-curvature="0" />
    <path
       style="fill:#000000;fill-opacity:1;fill-rule:nonzero;stroke:none"
       id="path3047"
       d="m 491.54348,395.00196 c 1.35436,-2.34772 3.12012,-4.35712 5.32598,-5.92213 2.57102,-2.12354 5.07454,-3.14682 8.1491,-3.89708 1.41133,-0.30158 2.82978,-0.57182 4.23715,-0.89143 1.35656,-0.23554 2.67772,-0.58696 3.96545,-1.0713 1.63432,-0.59044 6.50154,-3.61841 0.14988,0.16383 1.262,-0.82876 2.4955,-1.70262 3.6155,-2.71677 1.00951,-0.89394 1.90139,-1.91616 2.57338,-3.08559 0.76515,-1.10072 1.32679,-2.30306 1.77142,-3.56192 0.42796,-1.29645 0.4804,-2.66639 0.42277,-4.0187 -0.0633,-1.45681 -0.23864,-2.90792 -0.49932,-4.34202 -0.30418,-1.53827 -0.84865,-3.01347 -1.38315,-4.48315 -0.52806,-1.51587 -1.07377,-3.01873 -1.85336,-4.42478 -0.86391,-1.45151 -1.76227,-2.88198 -2.63312,-4.32934 -0.83292,-1.50184 -1.87772,-2.85736 -3.0182,-4.13441 -1.18385,-1.33516 -2.57223,-2.45958 -4.03785,-3.46795 -1.60492,-1.04706 -3.17659,-2.13506 -4.71354,-3.27872 -1.52997,-1.17168 -3.07145,-2.32559 -4.67687,-3.39198 -1.75721,-1.12103 -3.60798,-2.08469 -5.45833,-3.04041 -1.90291,-0.9947 -3.73715,-2.11314 -5.59367,-3.19037 -1.97443,-1.18508 -3.93466,-2.39302 -5.92151,-3.55723 -2.0283,-1.21781 -4.13282,-2.29482 -6.26129,-3.3243 -2.25332,-1.10199 -4.62621,-1.89166 -6.99186,-2.70284 -2.55074,-0.83404 -5.13619,-1.55403 -7.71959,-2.27785 -2.54269,-0.71272 -5.13546,-1.22953 -7.71764,-1.77603 -2.3232,-0.46138 -4.64941,-0.91479 -6.99468,-1.24919 -2.33131,-0.33413 -4.68053,-0.48453 -7.03222,-0.56967 -2.3934,-0.1209 -4.79058,-0.0301 -7.1831,0.0661 -2.05886,0.17406 -4.11671,0.31029 -6.16149,0.61327 -1.88145,0.22883 -3.7654,0.47688 -5.62264,0.85727 -1.46306,0.26932 -2.86337,0.74942 -4.25389,1.26548 -1.25202,0.48838 -2.47927,1.04043 -3.656,1.68978 -1.3988,0.74664 -2.8509,1.37556 -4.29734,2.02195 -1.64467,0.77508 -3.32399,1.47056 -4.99869,2.1779 -1.57809,0.62586 -3.10343,1.36622 -4.60814,2.15293 2.18173,-1.12745 -4.28726,2.32039 -2.08383,1.09124 7.66556,-4.2761 4.46107,-2.45122 2.7777,-1.50587 -3.02649,1.85144 -11.12005,6.06369 -2.02793,1.17238 1.74703,-0.93985 -1.5679,0.91997 -1.84992,1.10578 -0.8454,0.59872 -1.66028,1.27213 -2.23045,2.14383 -0.53558,0.64498 -0.95975,1.38081 -1.32514,2.13379 -0.34278,0.71315 -0.52578,1.48426 -0.77741,2.23012 -0.18345,0.87523 -0.2539,1.77108 -0.28134,2.66345 -0.0858,1.19004 0.002,2.37328 0.16875,3.55119 0.21986,1.37087 0.43593,2.74242 0.61708,4.11905 0.15472,1.42196 0.30064,2.84426 0.46337,4.26522 0.17249,1.11525 0.25879,2.24075 0.30164,3.36767 0.0386,1.03235 -0.10104,2.0535 -0.28875,3.0654 -0.26654,1.20203 -0.79167,2.31873 -1.24576,3.45661 -0.86406,2.37448 -2.67907,4.06551 -4.43611,5.7969 0,0 -0.28013,0.13869 -0.28013,0.13869 l 0,0 c -1.21098,-1.27228 -0.80497,-1.9804 -0.18689,-3.48711 0.45983,-1.12276 0.91109,-2.25412 1.24724,-3.42073 0.23806,-0.98536 0.34385,-1.98893 0.31805,-3.00391 -0.0107,-1.08954 -0.10056,-2.17393 -0.19985,-3.25862 -0.13875,-1.39421 -0.22284,-2.79255 -0.39051,-4.18407 -0.16931,-1.39841 -0.38172,-2.78943 -0.61665,-4.17815 -0.17196,-1.19301 -0.29566,-2.39289 -0.27368,-3.6003 0.029,-0.9214 0.0589,-1.84752 0.23537,-2.75517 0.1117,-0.83064 0.37256,-1.62673 0.67668,-2.40641 0.32758,-0.83036 0.69978,-1.62911 1.15582,-2.39682 0.65544,-0.86352 1.25732,-1.7414 2.19904,-2.33222 2.83057,-2.00134 12.79185,-7.30661 3.14412,-1.95995 -0.22581,0.12514 0.45953,-0.2354 0.6893,-0.3531 2.93313,-1.64851 5.86953,-3.29295 8.83701,-4.87701 1.50553,-0.75742 3.04358,-1.44068 4.57736,-2.13436 1.6621,-0.6995 3.32608,-1.39486 4.98294,-2.10588 1.39724,-0.62481 2.73561,-1.35497 4.11094,-2.02648 1.2204,-0.53376 2.4123,-1.13755 3.67825,-1.56229 1.37739,-0.48618 2.77862,-0.91271 4.21096,-1.2046 1.84975,-0.36924 3.6989,-0.73452 5.58403,-0.88498 2.11929,-0.14802 4.23759,-0.35493 6.36371,-0.35514 2.396,-0.0871 4.7915,-0.0607 7.18855,-0.0287 2.3638,0.10505 4.72676,0.26868 7.0699,0.60914 2.35657,0.35181 4.70389,0.75992 7.03345,1.26303 2.58987,0.54842 5.16958,1.14513 7.73381,1.80334 2.61707,0.71551 5.22658,1.45829 7.79963,2.3221 2.41281,0.83734 4.7668,1.84596 7.09854,2.88652 2.16165,0.98921 4.26511,2.0948 6.32621,3.27962 1.95838,1.12213 3.88155,2.30325 5.83002,3.44196 1.83335,1.08799 3.66583,2.17799 5.53728,3.19982 1.84423,1.01473 3.70691,2.00312 5.47415,3.1495 1.58276,1.07318 3.10701,2.22575 4.61732,3.39817 1.50747,1.1131 3.0671,2.15136 4.59492,3.23559 1.48246,1.11849 2.93244,2.28202 4.14562,3.69977 1.16128,1.37592 2.23839,2.81794 3.18588,4.35082 0.88194,1.43109 1.7811,2.85355 2.59705,4.32362 0.76206,1.47108 1.45272,2.97535 1.99314,4.5438 0.53816,1.51706 1.08238,3.03736 1.40115,4.61928 0.28363,1.42481 0.5093,2.8604 0.53631,4.31634 -0.0121,1.36584 -0.0312,2.72697 -0.48086,4.03704 -0.46379,1.33052 -1.10767,2.58261 -1.93439,3.72698 -0.94628,1.09382 -1.82171,2.25413 -2.92182,3.20635 -1.20758,0.98432 -2.43695,1.94165 -3.74805,2.78664 -2.38144,1.44905 -4.74319,3.11928 -7.37119,4.1299 -1.28165,0.41925 -2.59945,0.70882 -3.92354,0.96045 -1.40163,0.24149 -2.79879,0.52426 -4.17904,0.86721 -0.72782,0.18075 -1.45387,0.36628 -2.16353,0.61128 -1.25126,0.43197 -4.09651,2.14533 0.65759,-0.8931 -2.27644,1.49743 -4.13528,3.45805 -5.51223,5.82125 0,0 -3.35402,1.72078 -3.35402,1.72078 z"
       inkscape:connector-curvature="0" />
    <path
       style="fill:#000000;fill-opacity:1;fill-rule:nonzero;stroke:none"
       id="path3051"
       d="m 427.62026,332.15756 c -1.76324,-1.68926 -3.75524,-3.10222 -6.00487,-4.05465 -1.50987,-0.61914 -3.03307,-0.42973 -4.57596,-0.0813 -1.52819,0.3386 -2.8437,1.06423 -4.1026,1.96025 6.51684,-4.99673 2.24987,-1.8043 1.07974,-0.14187 -0.57352,0.87042 -0.73947,1.77214 -0.7196,2.79468 0.13526,1.10545 0.60555,2.09639 1.17211,3.03908 0.74711,1.12939 1.67465,2.12338 2.66085,3.04541 1.19783,1.10687 2.51776,2.06856 3.84494,3.01199 1.61575,1.12021 3.33315,2.08115 5.0881,2.96295 1.82022,0.89675 3.68459,1.69762 5.53547,2.52751 1.97862,0.88318 4.01333,1.62836 6.01214,2.46138 2.23725,0.81527 4.47783,1.62068 6.73342,2.38403 2.40748,0.84197 4.80819,1.70025 7.2329,2.49169 2.75647,0.95631 5.56924,1.72899 8.40331,2.41601 3.17339,0.7272 6.41095,1.07354 9.6288,1.5275 2.79851,0.38263 5.57335,0.85304 8.24381,1.7851 1.44276,0.35198 2.14766,1.31158 3.03228,2.3765 0,0 -0.25666,0.17842 -0.25666,0.17842 l 0,0 c -2.24248,0.27539 -4.49456,0.68797 -6.75799,0.36945 -2.85815,-0.28254 -5.67139,-0.8198 -8.51361,-1.226 -3.2238,-0.48011 -6.44462,-1.0194 -9.63082,-1.70747 -2.76388,-0.62823 -5.50253,-1.36705 -8.15547,-2.37454 -2.44454,-0.94559 -4.88705,-1.89786 -7.35812,-2.77255 -2.20669,-0.80264 -4.44187,-1.52053 -6.65103,-2.31565 -2.0002,-0.6706 -3.94351,-1.50439 -5.89904,-2.29394 -1.88396,-0.76827 -3.72138,-1.64592 -5.52735,-2.58253 -1.74614,-0.92956 -3.47124,-1.9002 -5.07081,-3.07046 -1.34038,-0.96416 -2.68057,-1.93808 -3.88003,-3.07753 -0.97789,-0.97073 -1.92827,-1.97587 -2.60577,-3.18782 -0.55226,-1.00184 -1.0505,-2.04954 -1.2198,-3.19261 -0.14553,-1.08142 -0.0782,-2.18149 0.49161,-3.14274 1.53956,-2.53091 4.11787,-4.04879 6.50325,-5.73111 1.28771,-0.83183 2.70421,-1.49422 4.20714,-1.8221 1.60503,-0.28358 3.18869,-0.33921 4.70776,0.36216 2.2194,1.06331 4.19867,2.5256 6.04228,4.1501 0,0 -3.69038,2.93062 -3.69038,2.93062 z"
       inkscape:connector-curvature="0" />
    <path
       style="fill:#000000;fill-opacity:1;fill-rule:nonzero;stroke:none"
       id="path3053"
       d="m 249.87703,560.96905 c -2.84212,-0.43909 -5.68689,-0.26899 -8.48923,0.31027 -2.60442,0.63844 -5.03326,1.80041 -7.39903,3.03588 -3.10122,1.74935 -6.12519,3.63067 -9.10713,5.57503 -3.42033,2.15629 -6.72697,4.48599 -10.01843,6.83241 -3.39045,2.36304 -6.76063,4.76227 -9.9894,7.34314 -2.6314,2.18173 -5.16032,4.49171 -7.52411,6.9624 -0.38308,0.40041 0.78922,-0.77811 1.18383,-1.16716 -4.33988,4.62104 -3.757,3.48076 -8.76642,9.45254 -2.87614,3.28014 -5.40759,6.83894 -7.69972,10.54535 -2.41718,3.9849 -4.39233,8.22298 -6.12736,12.54306 -1.71564,4.30581 -3.05873,8.74098 -4.37911,13.17926 -1.41476,4.57754 -2.46561,9.24066 -3.27732,13.95813 -0.75026,4.28885 -0.94328,8.64014 -0.74576,12.98192 0.1771,4.27407 1.31412,8.37655 2.67827,12.40092 1.54004,4.37033 3.69684,8.46731 6.05635,12.44093 2.58252,4.21982 5.62842,8.12029 8.77976,11.92363 3.54792,3.90078 6.74957,8.03807 9.13385,12.74836 0.46411,0.75236 0.92822,1.50472 1.39232,2.25707 0,0 -0.18959,0.24853 -0.18959,0.24853 l 0,0 c -0.61272,-0.55687 -1.22544,-1.11374 -1.83817,-1.67061 -4.15553,-2.92197 -7.77812,-6.49568 -11.00323,-10.41836 -3.13973,-3.82604 -6.19045,-7.73941 -8.78118,-11.9652 -2.38845,-3.99531 -4.59317,-8.11204 -6.18096,-12.50025 -1.41694,-4.04791 -2.59002,-8.1904 -2.83896,-12.49738 -0.20474,-4.43624 -0.0454,-8.86764 0.71157,-13.25364 0.84921,-4.73934 2.03185,-9.40331 3.42762,-14.0112 1.30481,-4.43358 2.70966,-8.84238 4.32353,-13.1739 1.73333,-4.35469 3.58646,-8.663 5.96689,-12.71218 2.2829,-3.72865 4.71283,-7.36388 7.54472,-10.70498 3.22524,-3.64412 6.51896,-7.16371 9.8791,-10.68855 0.37513,-0.39352 -0.76539,0.77235 -1.14808,1.15852 3.79246,-3.81019 7.53158,-7.70462 11.70556,-11.10639 3.22425,-2.55516 6.51964,-5.01448 9.93112,-7.31642 3.30668,-2.20736 6.62546,-4.39591 9.99513,-6.50642 3.04484,-1.85185 6.03104,-3.81136 9.18711,-5.47186 2.36322,-1.22704 4.75506,-2.46921 7.38399,-3.01974 2.81802,-0.48854 5.64915,-0.44281 8.48619,-0.0794 0,0 -2.26372,2.36629 -2.26372,2.36629 z"
       inkscape:connector-curvature="0" />
    <path
       style="fill:#000000;fill-opacity:1;fill-rule:nonzero;stroke:none"
       id="path3055"
       d="m 351.44076,761.5667 c 3.849,-1.88186 7.50341,-4.14386 10.95484,-6.6761 2.90875,-2.143 5.67481,-4.47461 8.24641,-7.01283 0.40868,-0.40337 -1.61691,1.62463 -1.2596,1.17513 0.68893,-0.86668 1.50677,-1.62256 2.26016,-2.43384 5.31829,-5.39563 9.87039,-11.47618 14.14679,-17.7112 4.52005,-6.71418 8.14153,-13.96678 12.14716,-20.9873 0.82658,-1.34312 1.65316,-2.68623 2.47974,-4.02934 0,0 0.25943,-0.17437 0.25943,-0.17437 l 0,0 c -0.11651,0.86995 -0.23303,1.7399 -0.34954,2.60985 -2.44097,7.13976 -6.41055,13.55656 -10.5254,19.84778 -4.28933,6.25326 -8.91918,12.23227 -14.11388,17.76891 -4.97531,5.05843 -9.94109,10.19902 -15.62377,14.47636 -3.36555,2.28829 -6.79748,4.44956 -10.48112,6.19911 0,0 1.85878,-3.05216 1.85878,-3.05216 z"
       inkscape:connector-curvature="0" />
  </g>
  <g
     inkscape:groupmode="layer"
     id="layer2"
     inkscape:label="Layer">
    <path
       style="fill:#d5e5ff"
       id="path3082"
       d="m 332.71926,519.74117 c 1.81786,-1.84831 3.80852,-3.50883 5.81121,-5.14992 1.70411,-1.44886 3.34226,-2.96487 4.86936,-4.59934 -1.6328,2.17065 4.13175,-4.93164 2.45357,-2.8183 -0.26414,0.33262 -3.94994,4.93569 -1.99869,2.49875 1.04897,-1.37379 2.051,-2.78435 3.02344,-4.21365 0.81831,-1.27581 1.639,-2.55281 2.40509,-3.86112 1.97487,-2.81444 4.31841,-5.37696 6.54006,-7.98894 -5.60181,6.81756 -0.47946,0.48157 0.80491,-1.0925 1.37942,-1.89989 2.69995,-3.83652 3.96885,-5.8129 1.37691,-2.19523 2.63189,-4.45897 3.91874,-6.70723 1.17358,-2.12844 2.23891,-4.31634 3.21536,-6.54209 0.89675,-2.05016 1.75191,-4.12505 2.83689,-6.08387 1.23408,-2.15436 2.71629,-4.15228 3.98712,-6.28184 1.0786,-1.70314 2.00704,-3.49143 2.83359,-5.32763 0.83777,-1.99767 1.78599,-3.94273 2.71462,-5.90183 0.99766,-1.98487 1.65107,-4.10289 2.22421,-6.24008 0.54555,-1.87764 0.78057,-3.82694 1.06164,-5.75716 0.37398,-2.17818 1.12439,-4.2342 1.91439,-6.28766 0.7846,-2.10757 1.59852,-4.20496 2.32783,-6.33283 0.71889,-2.0459 1.34242,-4.12221 1.99684,-6.18927 0.71805,-2.12236 1.18381,-4.30914 1.60514,-6.5052 0.33186,-2.26094 0.67497,-4.51536 1.19401,-6.74247 0.5775,-2.524 1.45471,-4.97155 2.26515,-7.42863 0.93881,-2.59302 1.98479,-5.1341 3.21898,-7.60025 1.0307,-1.77235 2.26515,-3.41431 3.43309,-5.09649 0,0 0.2729,-0.15243 0.2729,-0.15243 l 0,0 c 0.15244,1.03416 0.43118,2.04802 0.25105,3.09982 -0.45768,2.29355 -1.07451,4.54042 -1.84293,6.75058 -0.89764,2.30926 -1.69774,4.64821 -2.35891,7.03744 -0.51383,2.19979 -0.8277,4.43375 -1.29478,6.64319 -0.52853,2.33673 -1.21666,4.6327 -2.06144,6.87549 -0.74592,2.03495 -1.51346,4.061 -2.21703,6.11123 -0.73844,2.11732 -1.48716,4.22966 -2.38447,6.28592 -0.78044,2.00996 -1.53351,4.05528 -1.92893,6.17968 -0.43361,1.92532 -0.72524,3.87995 -1.19307,5.79879 -0.63097,2.14273 -1.45592,4.21707 -2.40389,6.23959 -0.88928,1.91311 -1.7135,3.85891 -2.47664,5.82387 -0.82558,1.92215 -1.67244,3.83697 -2.85655,5.57304 -1.42724,2.01353 -2.85045,4.03589 -4.15134,6.13292 -1.09906,1.92418 -2.10049,3.88386 -2.9085,5.95208 -0.99063,2.25239 -2.03119,4.47668 -3.32095,6.57715 -1.29284,2.2449 -2.72554,4.41122 -4.15765,6.56843 -1.26317,1.98312 -2.50431,3.98193 -3.92913,5.85368 -2.12781,3.1653 -4.76627,5.99123 -7.16855,8.9352 5.5763,-6.53148 1.06358,-1.37562 0.0112,0.34935 -0.90906,1.20127 -1.66681,2.50943 -2.5169,3.75252 -0.9736,1.45496 -1.97522,2.88935 -3.09518,4.23655 -2.14821,2.7241 -4.27374,5.48029 -6.61606,8.04148 -1.52509,1.57875 -3.11983,3.09441 -4.88278,4.40857 -2.00532,1.65859 -4.00523,3.33374 -5.79273,5.23106 0,0 2.39791,-4.24275 2.39791,-4.24275 z"
       inkscape:connector-curvature="0" />
    <path
       style="fill:#d5f6ff"
       d="m 289.01699,808.36682 c -16.65003,-3.41104 -20.69514,-4.5997 -31.44643,-9.24053 -6.20028,-2.67638 -16.79564,-6.67495 -23.54526,-8.88573 -12.25256,-4.01321 -16.61068,-6.3913 -26.10504,-14.24468 -2.7692,-2.29058 -8.33743,-5.975 -12.37383,-8.18761 -10.34945,-5.67316 -21.28615,-15.38122 -29.41553,-26.11095 -8.2168,-10.84511 -18.71642,-31.53371 -24.23257,-47.7482 l -3.89914,-11.46137 0.12328,-20.31789 c 0.0678,-11.17483 0.65844,-22.66225 1.31252,-25.52759 1.92086,-8.41468 11.33641,-22.72925 23.99419,-36.47865 6.32229,-6.86752 11.49507,-12.83947 11.49507,-13.27099 0,-0.43152 0.46888,-0.78459 1.04195,-0.78459 0.57307,0 1.04194,1.54729 1.04194,3.43841 0,1.89113 0.4542,3.89261 1.00933,4.44775 0.55514,0.55513 2.17204,3.30596 3.59312,6.11295 l 2.58378,5.10362 -2.45516,2.91778 c -6.24585,7.42278 -12.60117,22.39612 -17.32974,40.82946 -1.71077,6.6691 -2.10341,10.82053 -1.80502,19.0846 0.36621,10.14251 0.57409,10.94853 5.24013,20.31788 2.67234,5.36602 7.40444,12.83122 10.51578,16.58933 5.72441,6.91439 13.92808,14.18111 14.9058,13.20339 0.68865,-0.68865 -5.34103,-9.72475 -12.67475,-18.99438 -10.70078,-13.5255 -15.96281,-28.12668 -14.57073,-40.43109 1.00404,-8.87455 5.08534,-24.27362 8.7366,-32.96387 3.1975,-7.61029 10.498,-19.83327 11.85581,-19.8498 0.41164,-0.005 2.28714,2.03689 4.16777,4.53756 1.88064,2.50067 5.29483,5.87816 7.58711,7.50553 4.20858,2.98782 11.31652,8.97081 22.43899,18.88764 3.33864,2.97673 7.94637,6.36937 10.23942,7.53919 2.29304,1.16983 4.42634,2.54306 4.74065,3.05164 0.31432,0.50858 3.05642,2.14045 6.09356,3.62639 7.41209,3.62639 13.91345,9.35546 16.57505,14.60611 4.43732,8.7537 9.43262,13.39496 20.80426,19.32971 5.93946,3.09976 12.86022,7.43902 15.37946,9.6428 4.09325,3.58069 12.34384,7.12305 16.59045,7.12305 0.8342,0 4.48328,2.53244 8.10907,5.62765 6.39306,5.45753 6.90057,5.67939 16.78865,7.33909 5.60797,0.94129 12.87622,2.46364 16.15166,3.38299 8.69859,2.44151 18.3859,1.37689 28.88953,-3.17491 4.60076,-1.99375 9.8483,-3.95079 11.66122,-4.34898 l 3.29621,-0.72397 -3.94159,7.14995 c -11.00336,19.95985 -23.87736,35.66984 -35.22729,42.98743 -7.64355,4.92801 -10.11246,7.00571 -10.11246,8.51011 0,2.96068 11.95566,-5.75767 22.94372,-16.73111 12.80876,-12.7917 23.20485,-27.14007 27.29758,-37.67532 2.06557,-5.31705 2.69897,-6.01173 6.50046,-7.12944 2.31654,-0.6811 7.22873,-2.82785 10.91598,-4.77055 3.68725,-1.9427 6.85337,-3.38292 7.03581,-3.20046 0.18245,0.18244 -0.62481,3.10467 -1.7939,6.49384 -1.1691,3.38918 -3.04751,9.76343 -4.17423,14.16503 -2.32638,9.08804 -11.41032,30.5698 -18.28383,43.23771 -3.24535,5.9812 -6.56033,10.27921 -11.12189,14.41995 -14.04957,12.75347 -37.05739,25.78523 -51.30204,29.05774 -17.3125,3.9773 -32.84278,4.6502 -45.84548,1.98638 l 0,0 z"
       id="path3112"
       inkscape:connector-curvature="0" />
    <path
       style="fill:#d5f6ff"
       d="m 347.2637,705.40015 c -1.2864,-0.24795 -4.92357,-2.81305 -8.08258,-5.70021 -5.68217,-5.19319 -9.99525,-7.03204 -16.61941,-7.08556 -2.00182,-0.0162 -4.23303,-1.14608 -6.38832,-3.23507 -3.19389,-3.09563 -15.15159,-8.25117 -19.13771,-8.25117 -1.06584,0 -3.81727,-1.57016 -6.11428,-3.48926 -2.29701,-1.9191 -6.9129,-4.57457 -10.25753,-5.90104 -3.34462,-1.32648 -6.74485,-2.92121 -7.55605,-3.54385 -2.59293,-1.99022 -8.05533,-11.37197 -9.92228,-17.04168 -1.97568,-5.99989 -5.24083,-8.57605 -10.86971,-8.57605 -4.56296,0 -14.07057,-6.06218 -17.15625,-10.93906 -4.1129,-6.5004 -7.9267,-9.56883 -15.80867,-12.719 -7.14725,-2.85653 -7.34608,-3.03931 -10.53446,-9.68411 -3.35567,-6.99341 -6.09411,-9.33488 -10.94942,-9.36212 -1.50576,-0.008 -3.34625,-0.74855 -4.08997,-1.64467 -1.16133,-1.39933 -0.4072,-2.51527 5.34262,-7.90578 3.68216,-3.45206 9.55086,-8.31594 13.04156,-10.80861 l 6.34672,-4.53214 7.19853,1.60072 c 4.45787,0.99129 9.57869,3.10807 13.45019,5.55987 3.43841,2.17753 8.95526,4.72519 12.25967,5.66148 4.86481,1.37843 7.54135,3.11019 14.06623,9.10108 9.41486,8.64434 12.80661,10.33588 26.7028,13.3172 14.40781,3.09108 36.54674,12.30937 46.77447,19.47614 9.3744,6.56881 13.51018,8.17354 25.01252,9.70514 9.91974,1.32088 13.20657,2.94766 20.20113,9.99831 4.12841,4.16152 7.48479,6.3178 13.94643,8.95973 4.68027,1.91359 10.19624,4.93726 12.25771,6.71927 3.33166,2.87998 3.75244,3.80482 3.78679,8.32279 0.0379,4.98736 0.12665,5.12458 4.72737,7.30935 2.57881,1.2246 4.68875,2.87175 4.68875,3.6603 0,0.8563 -2.32836,2.06541 -5.78115,3.00215 -3.17962,0.86262 -8.46035,3.35566 -11.73492,5.54007 -9.0467,6.03489 -13.61355,7.68648 -29.22862,10.57048 -13.09609,2.41875 -23.47334,3.09086 -29.57216,1.9153 l 0,0 z"
       id="path3114"
       inkscape:connector-curvature="0" />
    <path
       style="fill:#2a7fff"
       id="path3120"
       d="m 184.8988,588.49691 c -0.43147,-1.81901 -0.66386,-3.67223 -0.67345,-5.54033 0.27895,-2.87106 0.26743,-2.37276 3.72845,-2.4773 0.87038,0.89583 1.13843,2.06059 1.29757,3.25638 0.13166,1.38861 0.16152,2.78444 0.25847,4.17581 0.0849,1.31746 0.30951,2.60831 0.78517,3.84057 0.3348,0.81594 0.96633,1.33277 1.67614,1.80894 1.15615,0.67045 2.38728,1.19587 3.59892,1.75513 1.49173,0.66031 2.88935,1.49476 4.21612,2.43908 1.34516,0.99457 2.55822,2.14853 3.73399,3.33419 1.2897,1.33503 2.59025,2.65956 3.87775,3.99669 1.3418,1.37704 2.65983,2.77689 3.97041,4.18358 1.17253,1.30325 2.40926,2.53926 3.72937,3.69172 1.49674,1.23167 3.00362,2.4514 4.46417,3.72603 1.52724,1.3424 3.04466,2.69572 4.57388,4.03596 1.39079,1.22525 2.74852,2.48813 4.06675,3.79107 1.33631,1.30269 2.72191,2.54986 4.1354,3.76783 1.61099,1.37939 3.04598,2.92738 4.32097,4.61826 1.18351,1.57821 2.05144,3.35185 2.93789,5.10455 0.79499,1.70199 1.75662,3.31276 2.76492,4.89456 1.08972,1.6397 2.23204,3.24385 3.43661,4.80102 1.13542,1.5139 2.47329,2.83305 3.95952,3.99657 1.47526,1.10648 3.15411,1.87057 4.86945,2.51932 1.96016,0.71326 4.01088,1.10544 6.0593,1.46298 2.3675,0.34344 4.72023,0.75945 7.03812,1.35294 2.50455,0.64327 4.72984,1.88153 6.77958,3.42415 1.81349,1.47001 3.15195,3.34978 4.22648,5.39983 0.83962,1.74831 1.51713,3.56735 2.28454,5.34725 0.57627,1.38391 1.35506,2.65467 2.39781,3.7314 0.95585,0.91559 2.14125,1.54708 3.3102,2.1467 1.57695,0.78875 3.13902,1.61059 4.75526,2.31661 1.74849,0.79705 3.61015,1.26929 5.48843,1.63708 2.17368,0.38016 4.36121,0.66537 6.52535,1.09927 1.9893,0.42147 3.90722,1.09694 5.7751,1.89027 1.66599,0.77091 3.22197,1.73274 4.61105,2.93097 1.39078,1.2964 2.23247,2.97258 2.92627,4.7115 0.58188,1.57027 1.02861,3.18406 1.63424,4.74564 0.47081,1.21691 1.21276,2.2705 2.08785,3.22552 0.95785,0.99506 2.17845,1.62388 3.45252,2.11192 1.72887,0.63016 3.5508,0.87577 5.37423,1.02459 2.16582,0.1277 4.33206,-0.0553 6.48541,-0.27435 2.18476,-0.24658 4.37105,-0.47945 6.55594,-0.72488 1.90935,-0.19472 3.80987,-0.4649 5.71775,-0.67282 1.73006,-0.19181 3.46984,-0.25733 5.20849,-0.18864 1.94619,0.0636 3.87995,0.3174 5.80461,0.59937 2.37142,0.34141 4.71211,0.85786 7.07407,1.2536 2.70705,0.51302 5.4399,0.3823 8.15497,0.043 3.6589,-0.57656 7.28706,-1.31873 10.90917,-2.08858 5.21942,-1.11744 10.34101,-2.62335 15.46727,-4.09742 3.28482,-0.83012 6.46048,-2.0254 9.69706,-3.01077 1.14243,-0.3478 2.32573,-0.56313 3.4498,-0.96632 1.10783,-0.39737 2.15244,-0.95279 3.22866,-1.42918 0.19408,-0.10576 0.34366,0.16871 0.14957,0.27447 l 0,0 c -9.93541,6.51784 4.06021,-2.78433 -5.84172,4.20401 -2.8709,2.02615 -6.03699,3.6244 -9.16947,5.19248 -5.1349,2.16462 -10.45407,3.7276 -15.92495,4.80429 -3.80292,0.8076 -7.62824,1.58914 -11.50549,1.93343 -3.13637,0.21835 -6.29361,0.31946 -9.4067,-0.2256 -2.32291,-0.40428 -4.63698,-0.85853 -6.96695,-1.22114 -1.74883,-0.25704 -3.50173,-0.48661 -5.26938,-0.56704 -1.52066,-0.0347 -3.03778,-0.0234 -4.55004,0.17106 -1.90783,0.20694 -3.8103,0.46129 -5.72019,0.65005 -2.20322,0.23167 -4.40546,0.47278 -6.60918,0.69969 -2.43392,0.22938 -4.88022,0.39801 -7.32471,0.22683 -2.26454,-0.1954 -4.51751,-0.56313 -6.66319,-1.34041 -1.92217,-0.76641 -3.74646,-1.72246 -5.20303,-3.22938 -1.27737,-1.38427 -2.3488,-2.92351 -3.02706,-4.6944 -0.59557,-1.55133 -1.07168,-3.14115 -1.6127,-4.71147 -0.41097,-1.0517 -0.84736,-2.11121 -1.65334,-2.92984 -0.9814,-0.88634 -2.11218,-1.57267 -3.34501,-2.05616 -1.5988,-0.63591 -3.24219,-1.16332 -4.92675,-1.52131 -2.16771,-0.43941 -4.36517,-0.70155 -6.53466,-1.13231 -2.20822,-0.46991 -4.39955,-1.03019 -6.47269,-1.9438 -1.7164,-0.76895 -3.4295,-1.54715 -5.09845,-2.41585 -1.6396,-0.90195 -3.29135,-1.80264 -4.59836,-3.17416 -1.35208,-1.53259 -2.50303,-3.20368 -3.26859,-5.11232 -0.70487,-1.67466 -1.35143,-3.37465 -2.11525,-5.02376 -0.73323,-1.43793 -1.61181,-2.78644 -2.87756,-3.81927 -1.48585,-1.18968 -3.15947,-2.10194 -5.00945,-2.59028 -2.2214,-0.54463 -4.48219,-0.87177 -6.73398,-1.26377 -2.3191,-0.43783 -4.63618,-0.92 -6.86411,-1.71564 -2.18814,-0.804 -4.30082,-1.78794 -6.16963,-3.20392 -1.7985,-1.40846 -3.45043,-2.99185 -4.85437,-4.80054 -1.29286,-1.67522 -2.52374,-3.39687 -3.68425,-5.16674 -1.09689,-1.72323 -2.14193,-3.47965 -3.01891,-5.32719 -0.74089,-1.49548 -1.49245,-2.99185 -2.45747,-4.35912 -1.07181,-1.41831 -2.2996,-2.69334 -3.67852,-3.81893 -1.4674,-1.28438 -2.93796,-2.56707 -4.31333,-3.95132 -1.29433,-1.2157 -2.54866,-2.4745 -3.90556,-3.62219 -1.51776,-1.33021 -3.02565,-2.67149 -4.53951,-4.00612 -1.48948,-1.26189 -2.99534,-2.50324 -4.49989,-3.74692 -1.44424,-1.26537 -2.81328,-2.60922 -4.08627,-4.0482 -1.2921,-1.38695 -2.59162,-2.76709 -3.91462,-4.12468 -1.27122,-1.32039 -2.54708,-2.63628 -3.81227,-3.96241 -0.98062,-0.9909 -1.97491,-1.97119 -3.08397,-2.82052 -1.06731,-0.76829 -2.18314,-1.45941 -3.38091,-2.00883 -1.47129,-0.66139 -2.97267,-1.28375 -4.30954,-2.20057 -1.52916,-1.06266 -2.80071,-2.34832 -3.47747,-4.12262 -0.58638,-1.67244 -0.92375,-3.40529 -0.9964,-5.17968 -0.08,-1.34437 -0.13149,-2.68946 -0.17832,-4.03534 -0.0234,-0.47156 -0.21573,-1.4117 0.44417,-0.74873 0.90983,-0.13848 1.84198,-0.17193 2.72948,-0.41544 0.16148,-0.0443 0.24012,-0.88286 0.0734,-0.17142 -0.0241,0.10285 -0.0487,0.20558 -0.0731,0.30837 -0.22287,1.62821 -0.0936,3.26743 0.0348,4.89958 0.31385,2.05917 -2.59825,2.50301 -2.91209,0.44384 z"
       inkscape:connector-curvature="0" />
    <path
       style="fill:#2a7fff"
       id="path3122"
       d="m 246.59135,584.29073 c -1.04078,-1.68773 -2.24621,-3.27942 -3.83918,-4.47612 -0.86724,-0.60559 -1.78269,-0.65001 -2.7879,-0.48597 -0.79636,0.18082 -1.57755,0.456 -2.21709,0.9744 -0.20044,0.45908 0.067,-0.14813 0.0713,-0.37822 -0.13204,-0.59016 1.40884,0.0439 1.73741,0.11342 1.78135,0.333 3.57995,0.54834 5.37864,0.75995 2.08257,0.22074 4.15538,0.48719 6.20145,0.93775 1.84368,0.3643 3.47293,1.2033 4.95777,2.3275 1.29118,1.08414 2.52412,2.23364 3.80171,3.33396 1.42607,1.27656 3.04825,2.28195 4.69538,3.24144 2.03671,1.07593 4.27502,1.67034 6.47886,2.29581 2.7822,0.7141 5.4978,1.61689 8.08141,2.87373 2.35504,1.23094 4.13699,3.17995 5.87805,5.13449 1.42229,1.6525 3.24915,2.73635 5.24851,3.53703 2.59286,0.91762 5.33275,1.22419 8.05588,1.4594 3.02572,0.14216 6.02643,0.47233 8.99655,1.06249 2.74868,0.58182 5.21635,1.89522 7.5824,3.35929 2.07482,1.37672 4.13679,2.77437 6.07251,4.34241 1.85194,1.54749 3.41781,3.38936 4.92297,5.26518 1.10852,1.54969 2.34954,2.91091 3.93139,3.97527 1.70334,0.97014 3.62435,1.43987 5.48899,1.99422 2.20491,0.60922 4.35972,1.3761 6.55191,2.02651 2.4331,0.66333 4.95596,0.84957 7.45799,1.0676 2.9677,0.17049 5.85241,0.79041 8.6539,1.76136 2.58583,0.98666 4.86032,2.58347 7.24235,3.95946 2.57502,1.52602 5.32218,2.70356 8.11609,3.75879 2.59289,1.03686 5.45529,1.4767 7.90031,2.88334 0.83278,0.4791 1.57613,1.09911 2.3642,1.64866 0.21897,0.0301 0.17643,0.33975 -0.0425,0.30967 l 0,0 c -0.94565,0.31141 -1.85959,0.74449 -2.83694,0.93423 -3.05821,0.5937 -6.17475,-0.41655 -9.05358,-1.30764 -3.06692,-1.1333 -6.09104,-2.40326 -8.88555,-4.11871 -2.0954,-1.2754 -4.14749,-2.65428 -6.39461,-3.65211 -2.41217,-0.91184 -4.93549,-1.26808 -7.5014,-1.4582 -2.79895,-0.27481 -5.61662,-0.54879 -8.33355,-1.31243 -2.2005,-0.63957 -4.37905,-1.35106 -6.57182,-2.01648 -2.34122,-0.6962 -4.73416,-1.35182 -6.80062,-2.70322 -1.87858,-1.35264 -3.51281,-2.97421 -4.90845,-4.82591 -1.31583,-1.61882 -2.63363,-3.25293 -4.21855,-4.62106 -1.76781,-1.46096 -3.65322,-2.75896 -5.60568,-3.96205 -1.89995,-1.18313 -3.85597,-2.28778 -6.0652,-2.77873 -2.79388,-0.60023 -5.64277,-0.77326 -8.48745,-0.98681 -3.1754,-0.3095 -6.36889,-0.70939 -9.37253,-1.8461 -2.61422,-1.10306 -5.0055,-2.50882 -6.86778,-4.70157 -1.41056,-1.52144 -2.71854,-3.18708 -4.52372,-4.2685 -2.28123,-1.244 -4.76731,-1.96582 -7.26515,-2.64925 -2.51246,-0.72909 -5.03699,-1.47483 -7.35144,-2.72326 -1.94458,-1.03492 -3.74436,-2.29229 -5.41314,-3.73272 -1.23284,-1.06324 -2.39283,-2.20169 -3.59318,-3.30042 -0.95079,-0.79968 -1.97263,-1.39617 -3.21692,-1.62044 -1.94397,-0.38258 -3.91313,-0.60752 -5.88085,-0.83008 -1.92909,-0.25567 -3.86306,-0.50981 -5.77161,-0.8913 -1.75975,-0.42593 -3.46555,-0.97616 -4.38215,-2.67223 -0.45533,-1.66659 -0.0932,-3.04463 1.32153,-4.11738 1.24933,-0.81316 2.64236,-1.28489 4.14038,-1.35769 1.8095,-0.0168 3.52681,0.30449 5.02082,1.39976 1.88399,1.49306 3.42944,3.32624 4.66486,5.3911 1.17831,1.99894 -1.64861,3.66532 -2.82692,1.66638 z"
       inkscape:connector-curvature="0" />
    <path
       style="fill:#2a7fff"
       id="path3124"
       d="m 280.6005,738.86032 c -2.14252,0.3447 -4.14832,1.08359 -6.04505,2.11911 -1.80224,1.06239 -3.30691,2.50334 -4.688,4.0566 -1.30941,1.45202 -2.13827,3.13163 -2.57145,5.02265 -0.39264,2.06223 -0.12988,4.13411 0.47602,6.12199 0.66798,1.92721 2.0087,3.27191 3.64354,4.40788 1.89096,1.23825 4.06782,1.68696 6.26542,2.00594 2.1796,0.31228 4.29621,-0.0476 6.43121,-0.42696 1.19543,-0.0399 2.37085,0.13577 3.54783,0.313 0.19477,-0.10449 0.34254,0.17096 0.14776,0.27545 l 0,0 c -0.70028,1.2962 -1.37275,2.36552 -2.72155,3.08506 -2.56135,0.85818 -5.26959,1.00668 -7.94795,0.6768 -2.82406,-0.37462 -5.58183,-1.07445 -8.0024,-2.64387 -2.38721,-1.65481 -4.29233,-3.70672 -5.21967,-6.52338 -0.81571,-2.69741 -1.23209,-5.45058 -0.66669,-8.25328 0.6217,-2.55479 1.70945,-4.8894 3.4714,-6.87362 1.70474,-1.89908 3.55722,-3.66335 5.78633,-4.9428 2.28303,-1.2782 4.71008,-2.2287 7.30074,-2.67438 3.0079,-0.56039 3.80041,3.69343 0.79251,4.25381 z"
       inkscape:connector-curvature="0" />
    <path
       style="fill:#2a7fff"
       id="path3126"
       d="m 235.33386,683.60767 c 2.291,-0.37374 4.60299,-0.5739 6.92237,-0.4664 1.89695,0.0851 3.69034,0.65615 5.38858,1.47185 1.73274,0.88814 3.06331,2.21786 4.15792,3.80177 1.369,2.02173 1.4886,4.14324 1.00465,6.46353 -0.75006,2.65972 -2.53805,4.6349 -4.56721,6.40788 -2.34244,1.84986 -5.1127,2.97786 -7.98752,3.68729 -2.04581,0.22884 -3.18193,-0.15218 -4.62318,-1.5701 -0.22102,5.3e-4 -0.22177,-0.31205 -7.4e-4,-0.31258 l 0,0 c 0.91576,-1.14518 1.89458,-2.10483 3.29309,-2.64983 2.20719,-0.77672 4.43424,-1.54383 6.42933,-2.79527 1.447,-0.99934 2.72224,-2.17628 3.37805,-3.85291 0.4295,-1.15339 0.73399,-2.37321 0.24828,-3.56335 -0.65093,-1.14574 -1.5725,-2.05416 -2.76146,-2.64536 -1.29901,-0.62572 -2.6587,-1.07383 -4.10534,-1.19519 -2.095,-0.0901 -4.18276,0.0547 -6.25196,0.4038 -2.25223,0.37113 -2.77709,-2.814 -0.52486,-3.18513 z"
       inkscape:connector-curvature="0" />
    <path
       style="fill:#2a7fff"
       id="path3128"
       d="m 323.5644,730.02959 c -1.71527,0.0209 -3.39983,0.28005 -4.95896,1.00609 -0.85653,0.45321 -1.41184,1.14966 -1.84982,1.99301 -0.29875,0.68016 -0.59198,1.45398 -0.27505,2.17508 0.39695,0.7066 1.1616,1.00536 1.87666,1.29254 1.64316,0.55914 3.34929,0.53011 5.02781,0.17971 2.01501,-0.36402 3.68745,-1.61488 5.68469,-1.99212 1.68957,0.37272 0.82833,0.11968 2.57473,0.78906 0.17841,-0.13046 0.36292,0.12186 0.1845,0.25232 l 0,0 c -0.0639,2.01249 0.10797,1.05787 -0.47072,2.87159 -1.87125,1.96842 -4.52589,2.78317 -7.12842,3.35392 -2.70989,0.3467 -5.41878,0.44239 -8.00223,-0.62199 -2.2519,-1.03605 -4.17637,-2.46316 -4.88233,-4.96057 -0.37594,-2.05634 -0.19235,-4.03453 0.80541,-5.90903 1.0483,-1.81898 2.3943,-3.35476 4.34967,-4.23345 2.22779,-0.94009 4.57131,-1.42644 6.99771,-1.43089 3.70151,-0.0469 3.76787,5.18781 0.0663,5.23473 z"
       inkscape:connector-curvature="0" />
    <path
       style="fill:#2a7fff"
       id="path3130"
       d="m 308.86598,639.0278 c -1.07327,2.48033 -2.20322,4.93829 -2.72003,7.60345 -0.16074,1.39665 0.16091,2.35689 1.43697,2.93062 2.29383,0.58321 4.68551,0.57457 7.02939,0.89898 2.29178,0.61601 1.14268,0.2464 3.44316,1.12155 0.21602,-0.0468 0.2822,0.25869 0.0662,0.30549 l 0,0 c -1.91417,1.80127 -0.8794,1.02141 -3.09579,2.35084 -3.48501,1.1572 -7.03891,1.38031 -10.35218,-0.48142 -2.93855,-2.28612 -3.66908,-4.43572 -3.07101,-8.10495 0.68155,-2.94242 1.79563,-5.73786 3.08057,-8.46869 1.304,-2.95764 5.48673,-1.1135 4.18273,1.84413 z"
       inkscape:connector-curvature="0" />
    <path
       style="fill:#2a7fff"
       id="path3132"
       d="m 332.07793,553.60984 c -1.71463,0.41543 -3.25465,1.16602 -4.48031,2.43806 -0.78068,0.90248 -1.22139,1.95561 -1.16702,3.14858 0.16095,1.15189 0.82683,2.09796 1.57016,2.9555 1.2244,1.36165 2.89526,1.96538 4.61158,2.44318 2.35019,0.59159 4.78315,0.68746 7.19353,0.5906 2.13444,-0.0552 4.13957,-0.70389 5.99837,-1.71621 1.57089,-0.86408 2.69093,-2.21388 3.67185,-3.67772 0.82433,-1.27918 1.38535,-2.69657 1.57412,-4.20593 0.2411,-1.35975 -0.16033,-2.65447 -0.55346,-3.93971 -0.36592,-0.97178 -0.126,-1.87689 0.046,-2.86684 -0.16618,-0.14573 0.0399,-0.38075 0.20609,-0.23502 l 0,0 c 1.7747,-0.22688 2.36658,-0.29245 3.59545,1.13876 1.26833,1.98157 1.79538,4.16477 1.68889,6.52374 -0.29373,2.36216 -0.98134,4.56257 -2.37554,6.52748 -1.51336,2.07592 -3.24313,3.95273 -5.52618,5.20211 -2.56353,1.29499 -5.27809,2.12719 -8.16449,2.27587 -2.9557,0.0742 -5.92076,-0.003 -8.79067,-0.80539 -2.63045,-0.82363 -5.1248,-1.93888 -7.00078,-4.03732 -1.499,-1.81502 -2.70745,-3.76668 -2.83501,-6.18897 0.0574,-2.59026 0.79851,-4.92219 2.59907,-6.85638 1.95993,-1.87046 4.23385,-3.17486 6.89948,-3.77727 3.58,-0.87604 4.81891,4.18684 1.23891,5.06288 z"
       inkscape:connector-curvature="0" />
    <path
       style="fill:#2a7fff"
       id="path3134"
       d="m 394.6171,509.8332 c -1.49881,-0.39507 -3.06169,-1.1584 -4.6454,-0.89823 -0.6044,0.29932 -1.02181,0.86477 -1.40101,1.40357 -0.60745,0.91473 -0.82934,1.97867 -0.97484,3.04824 -0.1268,1.02764 0.0107,1.98727 0.53927,2.87573 0.51242,0.74782 1.22558,1.24661 2.11568,1.40512 0.95358,0.18097 1.915,0.12125 2.8335,-0.17934 0.59132,-0.2513 0.95934,-0.64828 1.2319,-1.20677 0.36973,-0.70705 0.63864,-1.45051 1.06198,-2.12859 0.65637,-1.25529 1.75105,-1.42176 3.04044,-1.70832 0.0334,-0.21849 0.34238,-0.17128 0.30899,0.0472 l 0,0 c 1.61075,0.89601 2.22024,1.39865 2.06417,3.32154 -0.23646,1.79927 -1.04648,3.38711 -2.31448,4.69256 -1.36977,1.16281 -2.89707,1.82654 -4.71575,1.88093 -1.71455,0.0673 -3.4377,-0.0216 -5.07454,-0.58661 -1.71478,-0.80854 -3.2634,-1.87075 -4.29337,-3.50431 -0.90086,-1.7232 -1.30869,-3.54792 -1.06138,-5.49842 0.24799,-1.77568 0.70163,-3.49788 1.73976,-4.99202 1.14854,-1.56312 2.51329,-2.82853 4.50078,-3.16377 2.29003,-0.15088 4.4926,0.36778 6.58628,1.30412 2.74878,1.09034 1.2068,4.9777 -1.54198,3.88736 z"
       inkscape:connector-curvature="0" />
    <path
       style="fill:#2a7fff"
       id="path3136"
       d="m 397.53075,450.87457 c -2.5578,0.0615 -4.84992,0.95819 -6.90636,2.42917 -1.20405,1.08494 -2.77943,2.58515 -2.32561,4.36748 0.22274,0.27965 0.29189,0.41007 0.60368,0.6132 0.45226,0.29465 0.99444,0.43716 1.4376,0.74531 1.22541,0.85208 1.41144,1.36777 2.39272,2.66942 0.21751,0.0393 0.16201,0.34687 -0.0555,0.30762 l 0,0 c -0.7586,0.37324 -1.45373,0.92224 -2.27579,1.11974 -3.26805,0.78516 -5.94245,-2.43913 -6.51626,-5.24454 0.0655,-3.54834 1.44433,-5.98537 4.21187,-8.21199 2.85051,-1.94396 5.97722,-3.22027 9.48358,-3.22135 3.12961,0.0353 3.0797,4.46123 -0.0499,4.42594 z"
       inkscape:connector-curvature="0" />
    <path
       style="fill:#2a7fff"
       id="path3138"
       d="m 423.82486,404.10945 c 2.68341,-1.71876 5.59356,-2.97947 8.6225,-3.93686 2.96605,-0.91279 6.01941,-1.1934 9.09987,-0.94439 2.81478,0.32633 4.95629,1.67946 6.56647,3.96065 1.5832,2.98784 0.64419,5.81595 -1.12292,8.44474 -2.34447,2.87987 -5.59856,4.55329 -9.02862,5.7813 -2.32529,0.64311 -6.67357,1.75776 -8.85942,0.17101 -0.50026,-0.36315 -0.78429,-0.95573 -1.17644,-1.4336 -0.25318,-0.42383 -0.50637,-0.84767 -0.75955,-1.27151 -0.20115,-0.0916 -0.0716,-0.37608 0.12956,-0.28447 l 0,0 c 0.36357,-0.14294 0.72714,-0.28589 1.09071,-0.42883 0.36288,-0.30261 0.67749,-0.67502 1.08865,-0.90782 1.75562,-0.99404 4.66587,-0.63075 6.53191,-1.46723 2.34119,-0.78154 4.64181,-1.71976 6.34811,-3.58133 0.65463,-0.73863 1.44898,-1.55075 1.59767,-2.56725 -0.29868,-1.26058 -1.69005,-1.56737 -2.81228,-1.76293 -2.47736,-0.23881 -4.93861,0.0962 -7.33439,0.75989 -2.72245,0.79125 -5.38751,1.754 -7.8915,3.09957 -2.56745,1.47808 -4.65779,-2.15285 -2.09033,-3.63094 z"
       inkscape:connector-curvature="0" />
    <path
       style="fill:#2a7fff"
       id="path3140"
       d="m 436.1349,372.703 c -0.53621,0.72135 -1.98331,1.82431 -1.63418,2.88734 0.36445,0.41443 0.85318,0.70435 1.34045,0.95047 1.95447,0.49781 3.35748,1.12503 5.03971,2.31476 0.4767,0.08 0.95341,0.15993 1.43011,0.2399 0.2158,-0.0478 0.28343,0.25736 0.0676,0.30518 l 0,0 c -0.43431,0.28184 -0.86862,0.56368 -1.30293,0.84552 -0.43607,0.43806 -0.8129,0.94442 -1.30821,1.3142 -2.04696,1.52819 -4.72916,0.90319 -6.85535,-0.0579 -2.31205,-1.4427 -4.01225,-3.31397 -4.15186,-6.17471 0.263,-2.77626 1.49125,-5.02978 3.63427,-6.84553 2.98454,-2.64484 6.7249,1.57594 3.74036,4.22077 z"
       inkscape:connector-curvature="0" />
    <path
       style="fill:#2a7fff"
       id="path3142"
       d="m 442.41779,249.46721 c -1.70804,1.04397 -3.04353,2.4379 -3.96915,4.20189 -0.73572,1.70044 -1.05701,3.53812 -0.66352,5.35667 0.45899,1.42027 1.62964,1.83423 2.93124,2.266 2.49123,0.66712 5.07008,0.97628 7.64185,1.09371 2.03041,-0.005 3.58971,0.0929 5.34522,1.1506 0.20402,-0.085 0.32428,0.20348 0.12026,0.28852 l 0,0 c -0.18149,0.44932 -0.26661,0.95095 -0.54449,1.34796 -1.04555,1.49381 -3.30238,1.65575 -4.9018,1.89857 -3.23223,0.15132 -6.4965,0.151 -9.58576,-0.96013 -3.13646,-1.36913 -4.94924,-3.00932 -5.39255,-6.54981 -0.17387,-2.75668 -0.0488,-5.47142 1.24477,-7.98469 1.35264,-2.38714 3.12676,-4.39292 5.49383,-5.83163 2.63209,-1.61228 4.91219,2.11007 2.2801,3.72234 z"
       inkscape:connector-curvature="0" />
    <path
       style="fill:#2a7fff"
       id="path3144"
       d="m 549.46289,265.89441 c 2.53031,-0.17866 5.05928,-0.0377 7.52876,0.5391 2.32459,0.59901 4.23597,1.89858 5.93786,3.54361 1.98888,2.04981 2.81441,4.47462 2.62724,7.28606 -0.5397,3.10084 -2.4733,5.40213 -4.82867,7.34393 -3.12197,2.1285 -5.36296,2.91188 -9.09653,2.01865 -0.54776,-0.33407 -1.09552,-0.66814 -1.64329,-1.00221 -0.22,0.0213 -0.25008,-0.28986 -0.0301,-0.31113 l 0,0 c 0.40208,-0.42591 0.80415,-0.85182 1.20623,-1.27773 1.86768,-1.50767 3.97055,-2.54794 6.00603,-3.80347 1.28699,-1.02328 2.4906,-2.16398 3.17075,-3.69279 0.43126,-1.2838 0.44864,-2.38861 -0.50056,-3.46611 -1.0756,-1.12957 -2.3562,-1.98483 -3.87457,-2.40369 -2.07101,-0.52591 -4.18794,-0.71336 -6.32539,-0.66473 -2.90585,0.12571 -3.08362,-3.98378 -0.17778,-4.10949 z"
       inkscape:connector-curvature="0" />
    <path
       style="fill:#2a7fff"
       id="path3146"
       d="m 514.6479,207.05488 c -1.84553,0.41815 -3.63005,1.04048 -4.97618,2.40821 -0.98095,1.14677 -1.14717,2.56402 -1.04335,4.01453 0.28952,1.5773 1.37714,2.33375 2.7796,2.8746 1.66805,0.47802 3.28002,0.33357 4.81448,-0.44238 1.24478,-0.76529 2.60011,-1.08252 4.02512,-1.30601 0.0691,-0.20996 0.366,-0.11228 0.29693,0.0977 l 0,0 c 0.269,0.46805 0.66378,0.88366 0.80698,1.40416 0.55521,2.01799 -1.29341,3.84766 -2.7267,4.86433 -3.09638,1.42895 -6.31774,1.70892 -9.53825,0.40442 -3.18828,-1.5905 -5.36552,-3.91232 -5.73822,-7.59679 -0.15134,-3.0686 0.47298,-5.91778 2.60201,-8.25272 2.17476,-1.98642 4.72763,-3.23529 7.63645,-3.78341 3.75712,-0.75034 4.81826,4.56304 1.06113,5.31338 z"
       inkscape:connector-curvature="0" />
    <path
       style="fill:#2a7fff"
       id="path3148"
       d="m 494.75189,273.45895 c -1.91815,1.31816 -3.7897,2.6882 -5.35807,4.41626 -1.27284,1.50443 -2.01804,3.29198 -2.57952,5.15708 -0.59871,2.17108 -0.40828,4.31357 0.29102,6.42277 0.74586,1.82765 2.02525,3.10309 3.90465,3.6885 1.99778,0.41269 3.50262,-0.58778 4.99317,-1.7917 1.85375,-1.52127 2.53565,-3.88029 4.0233,-5.66555 0.54476,-0.30618 1.08952,-0.61237 1.63428,-0.91855 -0.004,-0.221 0.30876,-0.22633 0.31253,-0.005 l 0,0 c 0.55837,0.49051 1.11674,0.98101 1.67511,1.47152 0.10418,0.57074 0.31155,1.13204 0.31256,1.71221 0.005,3.1419 -2.51371,5.84708 -4.62338,7.83995 -3.26203,2.34956 -6.41543,3.51159 -10.38248,2.106 -3.03078,-1.51178 -5.41599,-3.66374 -6.59901,-6.92779 -0.95006,-3.07489 -1.2284,-6.21792 -0.37066,-9.36392 0.7643,-2.60687 1.82929,-5.09757 3.66226,-7.14873 1.83262,-1.99544 3.94503,-3.65665 6.23125,-5.11109 2.91213,-2.03151 5.78513,2.08687 2.87299,4.11838 z"
       inkscape:connector-curvature="0" />
    <path
       style="fill:#2a7fff"
       id="path3150"
       d="m 440.89328,176.33178 c 2.64732,1.52013 5.12673,3.39895 6.77844,5.98565 0.21227,2.47035 -0.23856,1.45365 1.09703,3.151 0.13665,0.17372 -0.10903,0.36698 -0.24568,0.19326 l 0,0 c -1.30603,-1.66075 -0.43093,-1.07614 -2.77243,-1.51058 -2.24637,-1.52188 -4.03137,-3.63462 -6.40305,-5.00276 -1.99162,-1.09296 -0.44594,-3.90954 1.54569,-2.81657 z"
       inkscape:connector-curvature="0" />
    <path
       style="fill:#2a7fff"
       id="path3152"
       d="m 461.85372,179.38457 c 1.4582,-2.37546 3.13614,-4.60673 4.99296,-6.68287 1.69515,-1.84023 3.6598,-2.46836 6.0905,-2.47004 0.18547,-0.12023 0.35549,0.14207 0.17002,0.26229 l 0,0 c -0.71893,1.86489 -1.49384,3.65313 -2.88206,5.13774 -1.68612,2.0132 -3.27499,4.1017 -4.88095,6.1788 -1.71538,2.46814 -5.20585,0.0422 -3.49047,-2.42592 z"
       inkscape:connector-curvature="0" />
    <path
       style="fill:#2a7fff"
       id="path3154"
       d="m 464.64567,199.17305 c 1.14203,2.14652 2.52548,4.5942 2.23698,7.1345 -0.0728,0.64145 -0.3286,1.24862 -0.4929,1.87293 0.0591,0.21298 -0.24209,0.29658 -0.3012,0.0836 l 0,0 c -0.45355,-0.41785 -0.95056,-0.79298 -1.36066,-1.25356 -1.51743,-1.70419 -2.18309,-4.01345 -3.38812,-5.91681 -1.35812,-2.33762 1.94779,-4.25828 3.3059,-1.92066 z"
       inkscape:connector-curvature="0" />
    <path
       style="fill:#2a7fff"
       id="path3156"
       d="m 439.88692,208.85343 c -2.00623,2.65121 -3.61064,5.57083 -5.53758,8.27414 -1.50984,1.80972 -0.67166,0.95247 -2.53178,2.55478 -0.058,0.21328 -0.35965,0.13121 -0.30162,-0.0821 l 0,0 c -0.71704,-2.64999 -0.59726,-1.31642 -0.38754,-3.99808 1.03148,-3.48434 2.99482,-6.46925 5.16048,-9.36578 1.85051,-2.54419 5.44855,0.0728 3.59804,2.61701 z"
       inkscape:connector-curvature="0" />
    <path
       style="fill:#2a7fff"
       id="path3158"
       d="m 545.54218,313.35391 c 1.86298,-0.85823 3.72982,-1.74563 5.7685,-2.06905 1.8645,-0.14317 3.28193,0.7809 4.61159,1.96334 2.1014,1.96956 2.07113,3.52605 1.83308,6.2765 0.10371,0.19519 -0.17232,0.34186 -0.27603,0.14667 l 0,0 c -1.72426,-0.90594 -3.35759,-1.60767 -4.54982,-3.18281 -0.33734,-0.33373 -0.70264,-0.77097 -1.16453,-0.90827 -1.58608,-0.0273 -3.02651,0.81231 -4.43009,1.45029 -2.5998,1.26763 -4.3925,-2.40904 -1.7927,-3.67667 z"
       inkscape:connector-curvature="0" />
    <path
       style="fill:#2a7fff"
       id="path3160"
       d="m 529.90449,313.16813 c -1.26767,-2.15491 -2.26591,-4.44582 -2.83442,-6.88072 -0.4697,-1.71767 0.0918,-3.04747 0.83041,-4.57396 -0.0693,-0.2099 0.2276,-0.30784 0.29685,-0.0979 l 0,0 c 1.47525,0.80419 2.68926,1.56378 3.30175,3.21397 0.88424,1.99306 1.57718,4.07101 2.63371,5.98688 1.66295,2.98985 -2.56534,5.34163 -4.2283,2.35177 z"
       inkscape:connector-curvature="0" />
    <path
       style="fill:#2a7fff"
       id="path3162"
       d="m 526.38557,327.20025 c -0.31079,0.37728 -0.62158,0.75455 -0.93237,1.13183 -0.0133,0.22063 -0.32533,0.2018 -0.31202,-0.0188 l 0,0 c -0.26305,-0.41377 -0.5261,-0.82754 -0.78916,-1.2413 0.0907,-1.43794 2.12428,-1.30963 2.03355,0.1283 z"
       inkscape:connector-curvature="0" />
    <path
       style="fill:#0055d4"
       id="path3172"
       d="m 501.95256,816.18262 c -2.24141,-0.64469 -4.55464,-0.82117 -6.87455,-0.76871 -2.57097,0.0883 -5.0796,0.68615 -7.55487,1.34112 -2.90488,0.71703 -5.76447,1.58062 -8.60488,2.51759 -2.66383,0.80922 -5.27989,1.75706 -7.85395,2.81541 -2.2585,0.93629 -4.43298,2.06162 -6.60671,3.17713 -2.20587,1.10718 -4.21956,2.52599 -6.14422,4.05977 -1.97466,1.67411 -3.79731,3.51484 -5.5702,5.39809 -1.74876,1.82059 -3.28623,3.81814 -4.73314,5.88177 -1.52573,2.23276 -2.80469,4.61548 -3.98419,7.04466 -1.22947,2.52068 -2.26009,5.12711 -3.18358,7.77287 -0.84922,2.469 -1.41508,5.0152 -1.88878,7.57826 -0.49327,2.8027 -0.76145,5.6358 -0.97655,8.47107 -0.24238,3.08012 -0.3612,6.16657 -0.43594,9.25458 -0.0821,2.95023 0.0564,5.89823 0.19408,8.84416 0.16857,2.91507 0.44422,5.8223 0.77164,8.7234 0.29229,2.67785 0.8768,5.29805 1.67597,7.86631 0.76887,2.42292 1.90554,4.69701 3.10461,6.92968 1.34838,2.46742 2.96432,4.7622 4.66647,6.99427 1.712,2.15199 3.6512,4.10892 5.61744,6.02633 1.89184,1.85724 3.93659,3.54252 6.04041,5.15154 2.12185,1.58649 4.35074,3.02213 6.62905,4.3717 2.40012,1.34078 4.84612,2.6002 7.30395,3.83151 2.45938,1.28037 4.97214,2.44462 7.54486,3.47715 2.77005,1.07226 5.6096,1.94672 8.44934,2.81168 2.71768,0.82453 5.44588,1.61223 8.21711,2.23615 2.73154,0.58014 5.51716,0.83906 8.30175,0.98208 3.00219,0.14785 6.01181,0.0773 9.01196,-0.0804 2.89789,-0.15095 5.77139,-0.58868 8.62136,-1.11795 3.06633,-0.6105 6.13413,-1.23285 9.15284,-2.05052 2.82621,-0.78088 5.53561,-1.93873 8.15286,-3.24989 2.6282,-1.30131 5.07756,-2.91939 7.48042,-4.59127 2.52978,-1.76188 4.97556,-3.6481 7.2398,-5.74134 2.17608,-1.93614 4.20232,-4.0249 6.08808,-6.24243 1.80441,-2.09066 3.37721,-4.36184 4.80544,-6.72137 1.29699,-2.20367 2.39517,-4.51927 3.37466,-6.87921 0.9159,-1.92238 1.31483,-3.95661 1.5059,-6.05727 0.14045,-2.2393 0.0673,-4.48259 -0.0787,-6.71913 -0.11476,-1.99898 -0.50268,-3.9615 -1.00074,-5.89565 -0.44354,-1.75533 -0.96046,-3.49045 -1.45862,-5.23066 -0.45051,-1.72633 -0.94023,-3.44266 -1.37096,-5.17401 -0.36819,-1.77895 -0.73437,-3.558 -1.12889,-5.33142 -0.38212,-1.54355 -0.82787,-3.07022 -1.24477,-4.60462 -0.44821,-1.49909 -0.95095,-2.97829 -1.52247,-4.43463 -0.5929,-1.42642 -1.20906,-2.84293 -1.78016,-4.27829 -0.52348,-1.36956 -1.02523,-2.74472 -1.68812,-4.05413 -0.52721,-1.02574 -1.2423,-1.93197 -1.84575,-2.90939 -0.76437,-1.17242 -0.0311,-2.24897 0.10763,-3.45966 -0.17768,-0.13147 0.008,-0.38275 0.18592,-0.25128 l 0,0 c 1.64469,-0.50333 2.51121,-1.05084 3.96861,0.27965 1.10917,1.13938 2.00523,2.47953 2.66398,3.92757 0.64106,1.42205 1.21765,2.87026 1.80416,4.31538 0.63845,1.47857 1.30359,2.94713 1.85971,4.45955 0.55711,1.55856 1.03839,3.14263 1.56932,4.71022 0.60031,1.64688 1.15406,3.31121 1.51837,5.02913 0.38886,1.68142 0.69231,3.38709 1.27052,5.01855 0.50929,1.67447 0.95521,3.36566 1.40866,5.05581 0.54717,1.80038 1.27364,3.53441 1.82005,5.3347 0.60478,2.30297 1.04783,4.6399 1.2105,7.01945 0.21242,2.56303 0.32519,5.13849 0.20551,7.70977 -0.19911,2.78462 -0.73507,5.51583 -1.82151,8.1025 -1.11858,2.68276 -2.29997,5.34337 -3.81791,7.82958 -1.64989,2.64898 -3.41381,5.22611 -5.46017,7.58926 -2.11251,2.40198 -4.31617,4.71861 -6.71718,6.83709 -2.54602,2.19261 -5.11825,4.35275 -7.91209,6.22991 -2.68804,1.82979 -5.42455,3.59291 -8.34167,5.04192 -3.03673,1.45837 -6.12319,2.8064 -9.38402,3.69145 -3.19748,0.81323 -6.41819,1.52026 -9.66217,2.1239 -3.13654,0.5479 -6.28664,1.03735 -9.47161,1.1911 -3.234,0.13616 -6.4728,0.26171 -9.70851,0.0836 -3.13247,-0.21173 -6.2663,-0.49685 -9.33698,-1.18287 -2.91445,-0.661 -5.78736,-1.47342 -8.64249,-2.35559 -3.04284,-0.89441 -6.0704,-1.84917 -9.01202,-3.04167 -2.73403,-1.11739 -5.41557,-2.35027 -8.0518,-3.68295 -2.56899,-1.32221 -5.15954,-2.60779 -7.6546,-4.06781 -2.49375,-1.48138 -4.93132,-3.05779 -7.25134,-4.80161 -2.30383,-1.76645 -4.53425,-3.62908 -6.60853,-5.66335 -2.18822,-2.13672 -4.33223,-4.32833 -6.19571,-6.76047 -1.89591,-2.49302 -3.70622,-5.06547 -5.17455,-7.8382 -1.40881,-2.5999 -2.6887,-5.27003 -3.53918,-8.11209 -0.8687,-2.93841 -1.54578,-5.92884 -1.85171,-8.98345 -0.34036,-3.02479 -0.60896,-6.05783 -0.77941,-9.09723 -0.17705,-3.11128 -0.28393,-6.22918 -0.19209,-9.34553 0.10931,-3.18152 0.33535,-6.35735 0.54994,-9.53322 0.23251,-3.05182 0.52516,-6.10089 1.08334,-9.11337 0.53501,-2.87526 1.20563,-5.72401 2.2308,-8.4694 1.02859,-2.83944 2.15472,-5.64426 3.45189,-8.3729 1.31817,-2.70632 2.73804,-5.36548 4.45412,-7.84487 1.60377,-2.30739 3.32803,-4.5269 5.27401,-6.55934 1.96544,-2.08499 3.97776,-4.13317 6.18543,-5.96518 2.2307,-1.78661 4.58227,-3.41522 7.14059,-4.70418 2.33282,-1.19634 4.68832,-2.35074 7.11052,-3.35721 2.74602,-1.09049 5.52483,-2.09472 8.36049,-2.92981 3.0125,-0.84648 6.04136,-1.65479 9.1115,-2.26486 2.87255,-0.53623 5.7528,-1.10406 8.6818,-1.20562 2.84851,-0.0136 5.68856,0.23748 8.41242,1.13277 3.41171,1.04069 1.93994,5.86558 -1.47177,4.82488 z"
       inkscape:connector-curvature="0" />
    <path
       style="fill:#0055d4"
       id="path3190"
       d="m 436.37346,864.31604 c 2.31151,-0.47435 4.592,-1.08291 6.88294,-1.64457 1.90037,-0.49309 3.79309,-1.01445 5.6935,-1.50739 1.85026,-0.48683 3.70052,-0.97438 5.54686,-1.47562 2.02328,-0.56276 4.05967,-1.08038 6.11098,-1.53053 2.16039,-0.49211 4.35064,-0.84503 6.54195,-1.16725 2.43104,-0.28981 4.84922,-0.68116 7.27883,-0.98012 2.2688,-0.32257 4.54168,-0.61634 6.82251,-0.83902 2.47424,-0.23798 4.95547,-0.39622 7.43823,-0.51095 2.79385,-0.10849 5.58658,-0.25071 8.38166,-0.32412 2.79118,-0.11396 5.58145,-0.21495 8.37517,-0.18568 2.71337,0.006 5.41971,0.20854 8.12994,0.31071 2.75083,0.12218 5.50309,0.18709 8.25612,0.23258 2.96936,0.0406 5.93956,0.0632 8.90742,0.17035 2.50325,0.0675 4.99139,0.33481 7.46451,0.71492 2.13241,0.35776 4.23571,0.86319 6.34137,1.34935 1.79254,0.41808 3.59532,0.78896 5.38195,1.2325 1.66577,0.36724 3.25952,0.9536 4.80476,1.66654 1.43868,0.69662 2.67721,1.69957 3.88965,2.72411 1.17824,1.0333 2.34182,2.0836 3.53817,3.09598 1.21977,1.05912 2.49927,2.04635 3.8065,2.99435 1.26729,0.89089 2.52155,1.73599 3.53815,2.91562 0.5397,1.18907 0.26461,0.60118 0.82478,1.76389 0.18431,0.122 0.0118,0.38265 -0.17254,0.26065 l 0,0 c -1.26956,-0.0489 -0.63109,-0.0404 -1.91543,-0.0243 -1.58671,-0.43472 -2.94876,-1.24746 -4.25928,-2.23554 -1.35867,-1.02588 -2.71546,-2.05515 -3.98754,-3.18874 -1.16349,-1.0424 -2.33255,-2.07866 -3.49655,-3.1205 -0.97408,-0.85973 -1.97284,-1.70131 -3.15956,-2.25688 -1.32547,-0.65511 -2.72997,-1.09209 -4.17128,-1.41864 -1.79356,-0.41256 -3.59872,-0.77008 -5.38784,-1.20252 -2.01882,-0.49892 -4.05036,-0.94445 -6.09382,-1.33106 -2.33398,-0.3931 -4.68675,-0.63105 -7.05453,-0.69058 -2.94469,-0.0903 -5.88966,-0.16607 -8.83603,-0.16875 -2.78854,-0.0178 -5.57671,-0.0625 -8.36157,-0.22022 -2.66396,-0.13226 -5.32921,-0.25766 -7.99538,-0.33049 -2.74981,0.0159 -5.49929,0.0599 -8.24638,0.19107 -2.78021,0.13362 -5.56364,0.17131 -8.34389,0.30722 -2.4304,0.12624 -4.86091,0.25198 -7.28471,0.47675 -2.26447,0.22088 -4.5288,0.44345 -6.79836,0.60627 -2.40739,0.24936 -4.81589,0.47582 -7.21463,0.80262 -2.12726,0.2981 -4.24438,0.65486 -6.35059,1.07831 -2.00449,0.43926 -3.99997,0.9154 -5.98107,1.45126 -1.85599,0.51892 -3.703,1.06923 -5.57494,1.53053 -1.90911,0.49515 -3.8153,1.0014 -5.72369,1.49931 -2.32714,0.58747 -4.67698,1.08519 -7.01998,1.60496 -1.85715,0.37219 -2.38351,-2.25421 -0.52636,-2.6264 z"
       inkscape:connector-curvature="0" />
    <path
       style="fill:#0055d4"
       id="path3192"
       d="m 435.62468,866.34313 c 1.60215,1.53849 3.26091,3.01808 5.01325,4.38347 1.26246,0.96034 2.62088,1.76994 4.04148,2.47021 1.49113,0.76005 3.01609,1.4518 4.52591,2.17372 1.48722,0.73317 2.97658,1.45753 4.48504,2.14578 1.52703,0.72957 3.14592,1.21759 4.75436,1.72713 1.84008,0.61572 3.73257,1.04843 5.60573,1.54619 2.03563,0.48575 4.08346,0.9169 6.12717,1.36736 1.9953,0.47794 4.00956,0.86144 6.03668,1.17427 1.95335,0.26715 3.91566,0.46022 5.87629,0.66542 2.1099,0.23641 4.23013,0.35313 6.35123,0.42182 2.06477,0.0447 4.12727,0.15841 6.19047,0.24731 2.11454,0.0803 4.23063,0.13394 6.34362,0.24984 2.1463,0.10968 4.28683,0.29973 6.43526,0.36434 2.18047,0.0598 4.35993,-0.0249 6.53928,-0.0848 2.42986,-0.0627 4.85921,-0.14268 7.28908,-0.20577 2.36009,-0.12574 4.71899,-0.26771 7.07663,-0.43333 2.24208,-0.16424 4.47136,-0.45667 6.69878,-0.75416 2.16126,-0.30501 4.31132,-0.68215 6.44407,-1.14582 1.92244,-0.4357 3.83457,-0.92209 5.73421,-1.44823 1.94012,-0.4812 3.87438,-0.98563 5.79114,-1.55358 1.6968,-0.45548 3.34784,-1.04425 4.98908,-1.66617 1.37881,-0.53518 2.72258,-1.15277 3.99255,-1.91159 1.23037,-0.72403 2.3934,-1.57364 3.84364,-1.71141 1.32083,0.36966 0.6034,0.0637 2.05393,1.12094 0.17265,-0.138 0.36781,0.10618 0.19516,0.24418 l 0,0 c 0.55664,1.76884 0.51051,0.96789 0.39307,2.37451 -0.73044,1.40748 -2.05615,2.2525 -3.36005,3.10021 -1.5539,0.96201 -3.12613,1.90405 -4.84813,2.54085 -1.80739,0.73706 -3.65923,1.35735 -5.54284,1.87068 -1.96857,0.55095 -3.94098,1.08239 -5.92707,1.56736 -2.00867,0.50645 -4.00194,1.07701 -6.03051,1.50323 -2.29078,0.4786 -4.59455,0.89834 -6.91752,1.189 -2.36009,0.31482 -4.72507,0.61687 -7.10188,0.77151 -2.43446,0.15502 -4.86959,0.33668 -7.30855,0.39098 -2.43251,0.0782 -4.86513,0.15635 -7.29858,0.19841 -2.3102,0.0636 -4.6225,0.12028 -6.93292,0.0294 -2.17408,-0.0981 -4.34144,-0.28084 -6.51288,-0.42128 -2.09762,-0.10046 -4.19505,-0.19313 -6.29345,-0.27039 -2.08563,-0.0901 -4.16998,-0.20081 -6.25392,-0.31917 -2.21842,-0.16804 -4.43493,-0.35983 -6.64844,-0.58379 -2.07178,-0.23228 -4.1423,-0.49619 -6.19224,-0.8789 -2.10893,-0.39206 -4.21137,-0.81526 -6.30354,-1.2891 -2.14096,-0.48768 -4.28173,-0.99004 -6.36566,-1.68789 -1.9411,-0.59337 -3.86028,-1.25811 -5.76856,-1.94959 -1.76213,-0.65777 -3.47944,-1.42284 -5.13979,-2.3086 -1.49613,-0.78437 -2.95147,-1.64271 -4.41084,-2.49294 -1.49168,-0.83363 -3.002,-1.63115 -4.50331,-2.44718 -1.54217,-0.93278 -3.03183,-1.9487 -4.38655,-3.14307 -1.80026,-1.5207 -3.5717,-3.08416 -5.16066,-4.82881 -1.6281,-1.68347 0.75268,-3.98596 2.38078,-2.30249 z"
       inkscape:connector-curvature="0" />
    <path
       style="fill:#0055d4"
       id="path3194"
       d="m 589.0196,716.44657 c 0.81177,1.72827 1.58247,3.48074 2.51392,5.14923 0.40067,0.71194 0.89343,1.35574 1.4567,1.94407 0.46749,0.52613 1.01971,0.93613 1.61107,1.30901 0.73021,0.42152 1.46752,0.83209 2.17786,1.28658 0.76758,0.46742 1.4775,1.01841 2.18813,1.56576 0.52955,0.35624 1.09808,0.64884 1.65396,0.96142 0.50809,0.29767 0.9817,0.6485 1.44892,1.00537 -0.0565,0.0423 -0.58705,-0.19608 -0.80687,-0.2456 0.63082,0.40866 0.9406,1.13489 1.23076,1.79295 0.31894,1.32957 -0.10509,1.09137 0.6116,1.32468 0.22044,0.0161 0.19768,0.32785 -0.0228,0.31176 l 0,0 c -0.72706,0.12681 -0.29731,-0.0497 -0.63601,1.24021 -0.23293,0.91364 -0.5437,1.88896 -1.66067,1.82249 -0.9323,-0.11819 -1.79053,-0.3954 -2.58946,-0.90119 -0.33256,-0.2348 -0.64572,-0.49264 -0.97706,-0.72902 -0.71643,-0.47115 -1.46001,-0.90441 -2.13137,-1.44118 -0.59057,-0.4378 -1.16034,-0.90092 -1.7702,-1.31187 -0.82918,-0.53362 -1.6758,-1.04365 -2.46183,-1.64037 -0.84942,-0.69018 -1.63479,-1.45551 -2.38238,-2.25435 -0.849,-0.96885 -1.62013,-2.00071 -2.21333,-3.14953 -0.98829,-1.82847 -1.85904,-3.7133 -2.66632,-5.62866 -1.70537,-3.83629 3.71996,-6.24805 5.42534,-2.41176 z"
       inkscape:connector-curvature="0" />
    <path
       style="fill:#aaccff;filter:url(#filter3349)"
       d="m 495.82557,947.42819 c -28.09951,-6.11872 -50.90704,-24.19969 -56.3602,-44.68029 -1.39698,-5.24665 -2.07813,-28.80952 -0.83283,-28.80952 0.34134,0 1.86518,0.87836 3.38632,1.95191 4.55519,3.21487 14.8996,8.12355 20.82839,9.8836 8.89127,2.63952 16.5129,3.7565 32.58093,4.77486 26.78639,1.69769 54.67399,-1.67186 67.34732,-8.13731 l 4.20107,-2.14322 2.20201,8.77971 c 3.32229,13.24637 2.99038,19.0325 -1.592,27.7528 -4.9417,9.40406 -16.43057,20.29697 -26.77756,25.38852 -12.68178,6.24045 -30.73072,8.3425 -44.98345,5.23894 l 0,0 z"
       id="path3202"
       inkscape:connector-curvature="0" />
    <path
       style="fill:#aaccff;filter:url(#filter3331)"
       d="m 486.98324,884.2834 c -6.75438,-0.45384 -16.33284,-1.9301 -21.95355,-3.38354 -13.92663,-3.60125 -29.08469,-11.49352 -26.68452,-13.89369 0.34661,-0.3466 6.90149,-2.16898 14.56642,-4.04971 18.19418,-4.46429 39.3992,-6.16493 64.80896,-5.19767 19.14595,0.72882 31.29809,2.59643 35.94703,5.52452 4.73123,2.97992 11.46137,8.99141 11.46137,10.23751 0,0.67376 -2.93047,2.43702 -6.51214,3.91834 -17.33746,7.17047 -37.75089,9.12087 -71.63357,6.84424 z"
       id="path3204"
       inkscape:connector-curvature="0" />
    <path
       style="fill:#0055d4"
       id="path3224"
       d="m 562.85483,862.70508 c 0.99758,0.35045 2.83307,0.80798 3.5441,1.63733 -0.63525,1.882 -0.39606,2.76613 -1.55791,2.23674 -1.27668,-0.81547 -1.09179,-1.00546 -1.70087,-1.95428 -0.61562,-0.86937 -1.23742,-1.73069 -1.79235,-2.64071 -0.79928,-1.33367 -1.20783,-2.83414 -1.60417,-4.32318 -0.47346,-1.91253 -0.84752,-3.84682 -1.19481,-5.78555 -0.35487,-2.09455 -0.67398,-4.1949 -1.04858,-6.28605 -0.50602,-2.36147 -0.81317,-4.75008 -0.97301,-7.15798 -0.18199,-3.32726 -0.0426,-6.65993 0.2268,-9.97748 0.23198,-2.83917 0.6893,-5.64981 1.25043,-8.44026 0.64176,-3.1288 1.64441,-6.16255 2.7378,-9.15775 1.20789,-3.25567 2.67057,-6.40666 4.26374,-9.48934 1.6229,-3.07155 3.32048,-6.10306 5.06393,-9.1076 1.85902,-3.21763 3.96038,-6.28454 6.09883,-9.32042 2.03843,-2.8553 4.07476,-5.71282 6.1765,-8.52202 2.09957,-2.72479 4.29964,-5.3706 6.47042,-8.03869 2.1063,-2.74014 4.52092,-5.20328 7.03375,-7.56619 2.25513,-2.0867 4.438,-4.24902 6.70443,-6.32352 2.13612,-1.97737 4.47414,-3.71353 6.81835,-5.43194 1.98474,-1.48341 3.987,-2.93791 6.09841,-4.23628 1.06755,-0.70413 2.27157,-1.13208 3.4252,-1.66055 0.72501,-0.44279 1.39544,-0.96478 2.11658,-1.41593 0.10386,-0.0648 1.3011,-0.58237 1.33867,-0.47901 1.52511,4.19581 2.48348,3.58735 0.91361,4.39292 -1.27452,0.4161 -1.46847,0.005 -1.77501,-2.19634 -0.0327,-0.23507 0.47197,-0.0507 0.70795,-0.076 9.5e-4,-0.011 0.15666,0.002 0.15571,0.0135 l 0,0 c 1.20457,0.45136 1.14297,0.57295 -0.56251,-1.70154 -0.0545,-0.0727 -0.18656,0.0249 -0.27265,-0.004 -0.0265,-0.009 0.0122,-0.0546 0.0183,-0.0819 1.05596,-1.17493 -0.0567,-0.005 1.69749,3.83766 0.028,0.0614 0.14365,-0.0457 0.20214,-0.012 0.0221,0.0127 -0.61732,0.56645 -0.60452,0.56884 -0.80637,0.56345 -1.64672,1.06937 -2.54184,1.48103 -0.98268,0.53416 -1.83962,1.25529 -2.73291,1.92274 -1.91531,1.47334 -3.84097,2.93297 -5.77543,4.38112 -2.17716,1.66841 -4.32132,3.38177 -6.3069,5.27834 -2.19273,2.09755 -4.35088,4.23069 -6.53622,6.33591 -2.30501,2.29432 -4.47833,4.70831 -6.49874,7.25886 -2.10683,2.60463 -4.23777,5.19154 -6.243,7.87615 -2.0523,2.78527 -4.0483,5.61083 -6.0045,8.46444 -2.01378,2.95562 -4.03344,5.91018 -5.85623,8.98943 -1.70445,2.88316 -3.36879,5.79174 -4.87321,8.7855 -1.45339,2.95174 -2.86078,5.92996 -4.01875,9.01257 -1.02854,2.74632 -1.99234,5.5224 -2.64281,8.38649 -0.5393,2.59192 -0.90381,5.21252 -1.04071,7.8587 -0.13078,2.31132 -0.22738,4.62447 -0.26737,6.93244 0.0168,2.21744 0.0556,4.44533 0.50167,6.627 0.41557,2.10447 0.8553,4.20496 1.14199,6.33231 0.2673,1.88015 0.50411,3.76538 0.82774,5.63694 0.23092,1.26072 0.50632,2.5161 0.86238,3.74765 0.29854,0.94144 0.70278,1.82936 1.25694,2.65126 0.31994,0.59637 0.64878,1.21318 0.82205,1.87224 0.27145,1.03252 0.0327,0.48203 -1.16515,-0.16442 1.45893,0.77397 1.08394,0.9526 0.22548,3.28492 -1.47337,0.0399 -2.87283,-0.78578 -4.04887,-1.58577 -0.18852,-0.0663 0.74914,-2.7323 0.93766,-2.666 z"
       inkscape:connector-curvature="0" />
    <path
       style="fill:#0055d4"
       id="path3226"
       d="m 497.37185,814.05996 c -0.93083,-0.57204 -2.11051,-1.21698 -2.6515,-2.22977 -0.18372,-0.34393 -0.33186,-0.70572 -0.49779,-1.05857 3.10553,-2.41706 2.13646,-2.22624 4.63219,-1.29895 0.36002,0.0873 0.72746,-0.078 1.08145,-0.14603 1.02764,-0.2378 2.06888,-0.40568 3.1106,-0.56725 1.10728,-0.14081 2.14536,-0.48825 3.14385,-0.97359 1.20348,-0.68625 2.47582,-1.22928 3.74672,-1.77457 1.46909,-0.58789 2.88566,-1.27493 4.22659,-2.11422 1.58072,-1.11168 3.11331,-2.28941 4.68816,-3.41005 1.98367,-1.31798 3.82673,-2.81929 5.61322,-4.38974 2.03373,-1.88124 4.00331,-3.83021 5.9793,-5.77157 2.25127,-2.20368 4.33734,-4.56383 6.42988,-6.91596 2.13447,-2.38448 4.21536,-4.81573 6.20435,-7.32287 2.06042,-2.69393 3.93392,-5.52319 5.79315,-8.35759 1.92771,-2.95366 3.88581,-5.88706 5.68654,-8.92067 1.59173,-2.69066 2.80463,-5.571 3.86908,-8.50278 0.96106,-3.02894 1.91202,-6.06274 2.90877,-9.08126 0.87901,-2.5021 1.79168,-4.99156 2.59489,-7.51931 0.78014,-2.4398 1.06954,-4.98675 1.29154,-7.52666 0.17987,-2.44557 0.48877,-4.87679 0.83075,-7.30388 0.25971,-1.6111 0.36577,-3.23229 0.20418,-4.85652 -0.18949,-1.32022 -0.46511,-2.6241 -0.61615,-3.94995 0.0122,-0.21228 -0.19281,-1.34289 0.271,-1.37218 0.2769,-0.0175 0.53839,0.13486 0.8097,0.19293 0.0919,0.30493 1.83226,-0.62055 0.73454,-1.07719 -0.008,0.007 -0.11204,-0.10952 -0.10378,-0.11686 l 0,0 c 0.21121,-0.97634 0.11247,-1.40726 1.25066,-1.35457 1.15385,0.43185 1.74434,1.0032 1.94522,2.23726 0.22098,1.29921 0.50376,2.58439 0.78754,3.87115 0.35836,1.99047 0.50914,3.99761 0.25434,6.01491 -0.25991,2.37305 -0.55746,4.74249 -0.7289,7.12435 -0.25096,2.8001 -0.44851,5.61814 -1.14113,8.35403 -0.93906,3.56175 -2.22817,7.00881 -3.43362,10.48641 -0.27348,0.61087 -0.0708,0.14641 -0.55973,1.65429 -0.81246,2.50557 -1.53121,5.04191 -2.46586,7.50695 -1.21548,3.18637 -2.58995,6.31289 -4.33775,9.24889 -1.8411,3.1009 -3.79605,6.13092 -5.82169,9.11458 -1.97871,2.90813 -3.96725,5.81739 -6.20001,8.53921 -2.0882,2.54153 -4.2547,5.01565 -6.41902,7.49238 -2.16988,2.42807 -4.4142,4.79023 -6.81717,6.99076 -2.06505,1.95333 -4.10987,3.93253 -6.27886,5.7715 -1.94935,1.61309 -3.99806,3.08876 -6.16953,4.39175 -1.68786,1.08949 -3.32834,2.25104 -5.04994,3.28729 -1.54925,0.86354 -3.16858,1.56596 -4.84728,2.14074 -1.26959,0.48162 -2.49662,1.05478 -3.73909,1.60079 -1.33929,0.50632 -2.7166,0.90025 -4.14444,1.05921 -1.08022,0.12894 -2.1643,0.2087 -3.25305,0.20128 -0.80271,0.0218 -1.61329,0.0166 -2.39749,-0.17934 -0.61188,-0.15583 -1.20014,-0.36427 -1.7615,-0.65743 -0.13091,-0.0684 -0.46253,-0.0963 -0.38384,-0.22129 0.53174,-0.84442 1.30154,-1.513 1.95231,-2.2695 -0.16726,-0.30249 -0.36306,-0.59086 -0.50176,-0.90745 -0.0214,-0.0488 0.0955,0.048 0.13882,0.079 0.13304,0.0953 0.26177,0.19661 0.38922,0.29926 0.61691,0.49689 1.21337,1.02213 1.68943,1.66094 0.19995,0.13698 -1.73716,2.96466 -1.93711,2.82769 z"
       inkscape:connector-curvature="0" />
    <path
       style="fill:#0055d4"
       id="path3234"
       d="m 618.45711,740.89726 c 1.68625,-0.56552 3.4811,-0.57081 5.22455,-0.8318 0.56139,-0.1498 0.95917,-0.59474 1.47817,-0.8821 0.59417,-0.33639 1.23133,-0.59201 1.79943,-0.97471 0.11747,-0.0791 0.46714,-0.31799 0.34103,-0.2535 -0.19806,0.10129 -0.37253,0.24324 -0.55879,0.36486 0.58357,-0.34667 0.85362,-0.92377 1.12697,-1.51584 0.34322,-0.75919 0.59538,-1.55537 0.76499,-2.37011 0.159,-0.78832 0.14185,-1.57864 -0.002,-2.36511 -0.19868,-0.9639 -0.70485,-1.79424 -1.25076,-2.596 -0.87092,-1.21078 -1.7201,-2.43633 -2.51438,-3.69884 -0.79711,-1.28844 -1.55178,-2.59878 -2.50086,-3.78291 -1.12391,-1.26838 -2.42677,-2.36196 -3.64967,-3.53195 -1.29964,-1.3525 -2.66876,-2.61774 -4.20507,-3.69525 -1.76148,-1.17077 -3.64352,-2.14372 -5.53244,-3.089 -2.15694,-1.00623 -4.3259,-1.98801 -6.50181,-2.9528 -2.20058,-0.97693 -4.46596,-1.78761 -6.76782,-2.48796 -2.54158,-0.75688 -5.14804,-1.24966 -7.74401,-1.77436 -2.2649,-0.45902 -4.51825,-0.97215 -6.78044,-1.44396 -1.80387,-0.41232 -3.64194,-0.43209 -5.47641,-0.29991 -1.60931,0.13058 -3.19463,0.43352 -4.76344,0.80516 0.21455,-0.37646 -1.54535,0.74932 -1.12121,0.50168 1.37636,-0.80365 0.63667,-0.4281 0.35004,-0.21894 -0.37651,0.35999 -0.44607,0.90966 -0.53723,1.39788 -0.1071,0.72588 -0.20183,1.45645 -0.19102,2.19128 0.0297,0.23256 0.0108,0.53242 0.17863,0.72155 0.22887,0.0143 0.43536,0.16679 0.63367,0.27353 0.48036,0.25772 0.90496,0.60052 1.27459,0.99903 0.42911,0.6376 -0.31672,1.50602 -0.60767,1.9811 0.0108,0.01 -0.12784,0.16211 -0.13861,0.15231 l 0,0 c -0.60233,0.4121 -1.35043,1.12136 -2.11935,0.63919 -0.21733,-0.15549 -0.44631,-0.2909 -0.67983,-0.42093 -0.56992,-0.33669 -1.14922,-0.67081 -1.56755,-1.20032 -0.57553,-0.74502 -0.98947,-1.56231 -1.09483,-2.51265 -0.10731,-1.02608 -0.0897,-2.05438 0.0895,-3.07327 0.19801,-1.11059 0.44993,-2.221 1.08153,-3.17729 1.05893,-1.45731 2.50849,-2.211 4.18929,-2.73784 1.80567,-0.53744 3.66872,-0.85762 5.55041,-0.96976 2.16881,-0.0826 4.3297,0.0167 6.45968,0.4706 2.27109,0.40182 4.53245,0.85853 6.81015,1.22328 2.77549,0.48583 5.5363,1.07039 8.20581,1.98899 2.43706,0.82768 4.85043,1.7255 7.20011,2.77916 2.23654,1.00115 4.46744,2.01681 6.65242,3.12716 2.06964,1.07041 4.12908,2.18426 6.00096,3.58114 1.57911,1.24644 3.04118,2.61727 4.46701,4.03572 1.35266,1.30968 2.74477,2.58983 3.94555,4.04424 0.98785,1.31093 1.84454,2.70249 2.67386,4.11795 0.81585,1.25206 1.65197,2.49114 2.44627,3.75703 0.71411,1.22565 1.35642,2.4958 1.66179,3.89264 0.22648,1.23211 0.28485,2.47155 0.0324,3.70796 -0.21162,1.03989 -0.50164,2.05427 -0.93663,3.02536 -0.47205,1.11476 -0.99762,2.22841 -1.8858,3.07808 -1.21237,0.86914 -2.40029,1.63424 -3.82228,2.10743 -0.80034,0.38994 -1.59097,0.80011 -2.4728,0.98492 -1.77393,0.39073 -3.60343,0.67805 -5.42308,0.54287 -0.25703,-0.0146 -0.0504,-3.6496 0.20665,-3.63499 z"
       inkscape:connector-curvature="0" />
    <path
       style="fill:#aaccff;opacity:0.83213429"
       d="m 495.82557,947.42819 c -28.09951,-6.11872 -50.90704,-24.19969 -56.3602,-44.68029 -1.39698,-5.24665 -2.07813,-28.80952 -0.83283,-28.80952 0.34134,0 1.86518,0.87836 3.38632,1.95191 4.55519,3.21487 14.8996,8.12355 20.82839,9.8836 8.89127,2.63952 16.5129,3.7565 32.58093,4.77486 26.78639,1.69769 54.67399,-1.67186 67.34732,-8.13731 l 4.20107,-2.14322 2.20201,8.77971 c 3.32229,13.24637 2.99038,19.0325 -1.592,27.7528 -4.9417,9.40406 -16.43057,20.29697 -26.77756,25.38852 -12.68178,6.24045 -30.73072,8.3425 -44.98345,5.23894 l 0,0 z"
       id="path3202-2"
       inkscape:connector-curvature="0" />
    <path
       style="fill:#aaccff;opacity:0.83213429"
       d="m 486.98324,884.2834 c -6.75438,-0.45384 -16.33284,-1.9301 -21.95355,-3.38354 -13.92663,-3.60125 -29.08469,-11.49352 -26.68452,-13.89369 0.34661,-0.3466 6.90149,-2.16898 14.56642,-4.04971 18.19418,-4.46429 39.3992,-6.16493 64.80896,-5.19767 19.14595,0.72882 31.29809,2.59643 35.94703,5.52452 4.73123,2.97992 11.46137,8.99141 11.46137,10.23751 0,0.67376 -2.93047,2.43702 -6.51214,3.91834 -17.33746,7.17047 -37.75089,9.12087 -71.63357,6.84424 z"
       id="path3204-4"
       inkscape:connector-curvature="0" />
  </g>
</svg>
